<?xml version="1.0" encoding="UTF-8" standalone="no"?>
<!DOCTYPE svg  PUBLIC '-//W3C//DTD SVG 1.1//EN'  'http://www.w3.org/Graphics/SVG/1.1/DTD/svg11.dtd'>
<svg xmlns="http://www.w3.org/2000/svg">
<defs>
<font id="Freight-BigBookItalic" horiz-adv-x="610">
<font-face slope="-12" underline-position="-113" font-weight="400" descent="-200" panose-1="2 0 6 3 9 0 0 9 0 4" units-per-em="1000" unicode-range="U+0020-2248" bbox="-177 -268 1052 845" x-height="436" underline-thickness="20" font-family="Freight" ascent="800" font-style="italic" cap-height="625"/>
<missing-glyph horiz-adv-x="1000"/>
<glyph glyph-name=".notdef" horiz-adv-x="1000"/>
<glyph glyph-name=".null" horiz-adv-x="0"/>
<glyph glyph-name=".null" horiz-adv-x="0"/>
<glyph glyph-name="nonmarkingreturn" horiz-adv-x="333"/>
<glyph glyph-name="space" horiz-adv-x="130" unicode=" "/>
<glyph glyph-name="exclam" horiz-adv-x="235" unicode="!" d="M81 -14q-21 0 -36.5 15.5t-15.5 36.5q0 20 15 34.5t37 14.5q23 0 37 -14t14 -35t-14.5 -36.5t-36.5 -15.5zM114 186q0 -3 -4 -3q-5 0 -3 4l48 401q0 1 1.5 8.5t2 9t3 8t4 9t5 7t7 6t9 3t11.5 1.5q1 0 4.5 -0.5t5.5 -0.5h2q35 -4 35 -29q0 -5 -7 -31z"/>
<glyph glyph-name="quotedbl" horiz-adv-x="298" unicode='&quot;' d="M206 646h2l39 -20l-198 -223h-8zM350 646h1l38 -20l-197 -223h-8z"/>
<glyph glyph-name="numbersign" horiz-adv-x="494" unicode="#" d="M144 193h-139v8h141l58 221h-139v8h141l53 202h11l-53 -202h163l53 202h11l-53 -202h138v-8h-140l-58 -221h138v-8h-140l-52 -198h-11l52 198h-163l-52 -198h-11zM320 201l58 221h-163l-58 -221h163z"/>
<glyph glyph-name="dollar" horiz-adv-x="464" unicode="$" d="M105 16q38 -20 87 -20q71 0 115.5 46t44.5 113q0 81 -112 142q-10 -20 -33 -68.5t-34 -71.5q-9 -19 -20 -41.5t-18.5 -39t-14.5 -31t-11 -21.5zM376 608q-35 23 -81 23q-58 0 -95.5 -38.5t-37.5 -88.5q0 -39 26 -68t77 -59q29 58 56 116q22 43 55 115zM87 1 q-55 15 -99 44l21 140h4l11 -50q16 -77 72 -114l134 281q-2 2 -3 2q-61 33 -96 71t-35 90q0 68 54 121.5t139 53.5q51 0 94 -17l55 117h12l-57 -120q4 -2 18.5 -8t21.5 -10l42 8l-24 -154l-4 1l-41 127q-9 10 -21 18l-110 -230q1 -1 4 -2q145 -78 145 -181 q0 -78 -64.5 -140.5t-165.5 -62.5q-49 0 -96 13l-78 -163h-12z"/>
<glyph glyph-name="percent" horiz-adv-x="549" unicode="%" d="M580 640h13l-584 -654h-13zM397 -13q-56 0 -90 36.5t-34 88.5q0 54 34 91.5t90 37.5q57 0 91 -37.5t34 -91.5q0 -52 -34 -88.5t-91 -36.5zM397 -3q51 0 82 33t31 83q0 49 -31.5 83.5t-81.5 34.5t-81 -34.5t-31 -83.5q0 -50 30.5 -83t81.5 -33zM194 386q-56 0 -90 36.5 t-34 89.5t34 90.5t90 37.5q57 0 91 -37.5t34 -90.5t-34 -89.5t-91 -36.5zM194 396q51 0 82 33t31 83q0 49 -31.5 83.5t-81.5 34.5t-81 -34.5t-31 -83.5q0 -50 30.5 -83t81.5 -33z"/>
<glyph glyph-name="ampersand" horiz-adv-x="706" unicode="&amp;" d="M590 366q47 -8 74 -42.5t27 -88.5q0 -98 -106 -173.5t-242 -75.5q-140 0 -231 69.5t-91 174.5q0 71 46.5 130t119.5 81q-5 25 -5 41q0 66 42.5 111.5t103.5 45.5q52 0 89 -41t37 -100q0 -8 -2 -24l-11 2v10q0 42 -26.5 74.5t-69.5 32.5t-70 -32t-27 -84q0 -10 2 -24h16 q53 0 88 -24t35 -60q0 -24 -18 -38.5t-49 -14.5q-42 0 -79 33t-53 80q-51 -18 -79.5 -57.5t-28.5 -92.5q0 -114 86 -177t242 -63q116 0 193 57t77 140q0 49 -31 84t-75 35q-36 0 -71.5 -27t-35.5 -55q0 -56 79 -61q-18 7 -18 29q0 14 8.5 24t24.5 10q14 0 24 -9.5t10 -23.5 q0 -18 -12.5 -30t-33.5 -12q-46 0 -75.5 27.5t-29.5 74.5q0 37 28.5 63t69.5 40.5t82 28.5t69.5 37t28.5 56q0 35 -23.5 56.5t-63.5 22.5q20 -6 20 -32q0 -14 -8.5 -24t-24.5 -10q-15 0 -25.5 10t-10.5 25q0 18 15.5 31t35.5 13q46 0 78 -38t32 -93q0 -41 -38 -68.5 t-119 -53.5zM252 442q9 -42 35 -67.5t59 -25.5q11 0 19 8t8 19q0 26 -31.5 46t-74.5 20h-15z"/>
<glyph glyph-name="quotesingle" horiz-adv-x="148" unicode="&apos;" d="M206 646h2l39 -20l-198 -223h-8z"/>
<glyph glyph-name="parenleft" horiz-adv-x="316" unicode="(" d="M207 -268q-68 49 -120 148t-52 223q0 61 12 114q19 84 61 158t94 125t103 85.5t98 51.5l5 -10q-47 -18 -97.5 -52t-101.5 -84.5t-91 -122.5t-57 -153q-13 -58 -13 -115q0 -120 50.5 -216t116.5 -143z"/>
<glyph glyph-name="parenright" horiz-adv-x="316" unicode=")" d="M-104 -258q107 41 210.5 149.5t136.5 263.5q13 58 13 115q0 120 -50 215t-117 143l8 9q68 -49 120.5 -147.5t52.5 -221.5q0 -57 -13 -115q-18 -83 -60 -158t-94.5 -126t-103.5 -85.5t-98 -51.5z"/>
<glyph glyph-name="asterisk" horiz-adv-x="303" unicode="*" d="M188 372l13 103q0 7 -5 4l-73 -76l-62 -1l-1 1q1 1 1 2l32 54l102 22q5 2 1 6l-91 47l-17 57q-2 3 2 3l60 -13l47 -92q1 -2 4 -1.5t3 2.5l23 107l50 33h1v-1l6 -59l-78 -81q-2 -2 -0.5 -4.5t3.5 -2.5l107 21l46 -37l2 -1l-1 -1l-56 -26l-98 43q-4 1 -5 0t0 -4l48 -95 l-22 -56l-1 -1l-1 1z"/>
<glyph glyph-name="plus" horiz-adv-x="433" unicode="+" d="M214 230h-201l2 12l199 1l1 202h13v-202l200 -1l2 -12h-202v-207h-13z"/>
<glyph glyph-name="comma" horiz-adv-x="162" unicode="," d="M-44 -96q40 14 71.5 43.5t31.5 66.5q0 18 -10 29t-26 11q-13 0 -30 -9q-2 8 -2 13q0 20 14.5 36t39.5 16q27 0 45 -19t18 -48q0 -45 -45 -87t-105 -56z"/>
<glyph glyph-name="hyphen" horiz-adv-x="280" unicode="-" d="M31 254h239l-10 -30h-239z"/>
<glyph glyph-name="period" horiz-adv-x="184" unicode="." d="M55 -13q-21 0 -36.5 16t-15.5 37q0 20 15 35t37 15q23 0 37 -14.5t14 -35.5q0 -22 -14 -37.5t-37 -15.5z"/>
<glyph glyph-name="slash" horiz-adv-x="249" unicode="/" d="M226 630h10l-210 -877h-10z"/>
<glyph glyph-name="zero" horiz-adv-x="519" unicode="0" d="M233 -12q-92 0 -145 58t-53 152q0 113 74 199t178 86q89 0 142.5 -59t53.5 -153q0 -117 -73 -200t-177 -83zM224 -4q77 0 131 97.5t54 227.5q0 71 -30 111.5t-84 40.5q-79 0 -132.5 -96t-53.5 -233q0 -71 29.5 -109.5t85.5 -38.5z"/>
<glyph glyph-name="one" horiz-adv-x="322" unicode="1" d="M12 1q0 1 0.5 1t0.5 1l1 1q0 2 1 2l34 1q43 1 47 16l86 413l-99 14l3 5l172 24l-98 -458v-1l-1 -2q0 -7 54 -11l28 -1l2 -6h-231v1z"/>
<glyph glyph-name="two" horiz-adv-x="425" unicode="2" d="M-26 8q201 141 264 204.5t63 123.5q0 48 -27 74.5t-73 26.5q-69 0 -124 -78l-6 5q78 119 179 119q54 0 89 -32.5t35 -78.5q0 -61 -50 -110.5t-197 -154.5q-39 -28 -61 -44v-2h239q27 0 95 114l6 10l5 -1l-80 -184h-356z"/>
<glyph glyph-name="three" horiz-adv-x="393" unicode="3" d="M78 -200q-64 0 -103 18t-39 54q0 19 14 33.5t35 14.5q18 0 32.5 -15t14.5 -35q0 -21 -16 -40q42 -20 71 -20q73 0 121 54t48 134q0 64 -38.5 101.5t-106.5 37.5q-31 0 -63 -8l-3 6q133 57 184 98.5t51 103.5q0 44 -27.5 72.5t-72.5 28.5q-37 0 -71.5 -24t-58.5 -64l-6 5 q33 59 81 93.5t104 34.5q53 0 88 -34.5t35 -82.5q0 -59 -45.5 -102.5t-138.5 -79.5v-2h4q67 -4 109.5 -50.5t42.5 -108.5q0 -86 -74 -154.5t-172 -68.5z"/>
<glyph glyph-name="four" horiz-adv-x="462" unicode="4" d="M223 10h-259l1 3l403 460h17l-87 -408l114 -1l-22 -54h-104l-41 -194h-62zM235 65l65 313h-2l-273 -313h210z"/>
<glyph glyph-name="five" horiz-adv-x="377" unicode="5" d="M42 -199q-104 7 -104 70v5q1 18 15 31t33 13h2q20 -1 32.5 -18.5t12.5 -41.5q0 -17 -8 -36q30 -11 51 -12h7q58 0 104 54t50 129v13q0 73 -53 120t-149 64l99 276h243l-28 -69h-228l-52 -149q110 -19 170.5 -77.5t60.5 -140.5v-9q-4 -85 -74 -154t-166 -69q-3 0 -9 0.5 t-9 0.5z"/>
<glyph glyph-name="six" horiz-adv-x="468" unicode="6" d="M217 -11q-87 0 -136 60t-49 150q0 77 37 153t102 136.5t163 98.5t210 39l-1 -8q-143 -8 -248.5 -89t-155.5 -195l2 -1q76 58 154 58q70 0 107.5 -43.5t37.5 -112.5q0 -99 -67 -172.5t-156 -73.5zM216 -2q62 0 105.5 65t43.5 155q0 64 -29 103.5t-88 39.5q-58 0 -116 -43 q-30 -76 -30 -149q0 -78 28 -124.5t86 -46.5z"/>
<glyph glyph-name="seven" horiz-adv-x="409" unicode="7" d="M404 399l-2 4h-201q-65 0 -93.5 -16t-52.5 -64l-5 -10l-6 1l51 154h356v-4l-370 -648h-55z"/>
<glyph glyph-name="eight" horiz-adv-x="459" unicode="8" d="M210 -16q-83 0 -139 46.5t-56 113.5q0 66 53 113.5t139 59.5l1 2q-99 71 -99 152q0 67 56 119t133 52q72 0 121 -43t49 -106q0 -56 -45 -96.5t-120 -58.5v-2q56 -45 85 -83t29 -90q0 -74 -61 -126.5t-146 -52.5zM215 -7q60 0 99.5 40.5t39.5 94.5q0 52 -36 93.5 t-102 89.5q-62 -18 -99.5 -65.5t-37.5 -115.5q0 -59 35.5 -98t100.5 -39zM294 342q50 21 80.5 63t30.5 100q0 54 -29 90.5t-81 36.5q-53 0 -88 -39t-35 -91q0 -46 31 -81.5t91 -78.5z"/>
<glyph glyph-name="nine" horiz-adv-x="468" unicode="9" d="M-65 -141q143 8 248.5 89t155.5 195h-2q-77 -57 -154 -57q-71 0 -108 42.5t-37 113.5q0 98 67.5 172t155.5 74q86 0 135.5 -60.5t49.5 -148.5q0 -78 -37 -154t-102.5 -136t-163 -98t-209.5 -39zM230 116q58 0 116 44q31 75 31 149q0 76 -28.5 122.5t-85.5 46.5 q-62 0 -105.5 -64.5t-43.5 -153.5q0 -65 28.5 -104.5t87.5 -39.5z"/>
<glyph glyph-name="colon" horiz-adv-x="182" unicode=":" d="M55 -13q-21 0 -36.5 15.5t-15.5 36.5q0 20 15 34.5t37 14.5q23 0 37 -14t14 -35t-14.5 -36.5t-36.5 -15.5zM120 292q-21 0 -37 16t-16 37t15 35t38 14q22 0 36.5 -14.5t14.5 -34.5q0 -21 -14.5 -37t-36.5 -16z"/>
<glyph glyph-name="semicolon" horiz-adv-x="162" unicode=";" d="M-44 -95q40 14 71.5 43.5t31.5 65.5q0 18 -10 28.5t-26 10.5q-15 0 -30 -8q-2 8 -2 13q0 20 14.5 35.5t39.5 15.5q27 0 45 -18.5t18 -47.5q0 -45 -45 -86.5t-105 -55.5zM112 292q-22 0 -37.5 16t-15.5 36q0 21 15 35.5t38 14.5q22 0 36.5 -15t14.5 -35q0 -21 -14.5 -36.5 t-36.5 -15.5z"/>
<glyph glyph-name="less" horiz-adv-x="420" unicode="&lt;" d="M5 230v11l398 196l5 -11l-387 -189v-2l387 -191l-5 -11z"/>
<glyph glyph-name="equal" horiz-adv-x="428" unicode="=" d="M18 153h392l3 -10h-398zM15 328h398l-3 -10h-392z"/>
<glyph glyph-name="greater" horiz-adv-x="420" unicode="&gt;" d="M12 44l387 191v2l-387 189l5 11l398 -196v-11l-398 -197z"/>
<glyph glyph-name="question" horiz-adv-x="299" unicode="?" d="M106 -14q-23 0 -38 15.5t-15 36.5t15 35t38 14t37 -14t14 -35t-14.5 -36.5t-36.5 -15.5zM143 181q-68 64 -68 107q0 35 26 58.5t98 48.5q72 24 95 40.5t23 45.5q0 35 -36.5 63.5t-112.5 28.5q-33 0 -59 -7q-3 8 -3 18q0 27 14 41.5t52 14.5q71 0 113 -45t42 -109 q0 -61 -25.5 -93t-98.5 -59q-53 -18 -75.5 -33t-22.5 -43q0 -34 44 -76z"/>
<glyph glyph-name="at" horiz-adv-x="766" unicode="@" d="M400 -103q-160 0 -261.5 95.5t-101.5 246.5q0 166 114 284.5t274 118.5q143 0 235.5 -87t92.5 -221q0 -109 -71.5 -191.5t-157.5 -82.5q-50 0 -76 23t-26 61q0 44 24 93h-2q-64 -93 -101 -132t-72 -39q-33 0 -57.5 24.5t-24.5 59.5q0 64 46.5 134t108.5 127q55 52 103 52 q23 0 36.5 -24t12.5 -64h1l38 114l64 -4l-70 -179l-33 -86q-18 -46 -18 -75q0 -55 73 -55q71 0 131.5 72t60.5 172q0 129 -90 214t-228 85q-156 0 -267 -116t-111 -278q0 -146 98.5 -239.5t254.5 -93.5q105 0 195 54.5t128 135.5l9 -4q-41 -84 -132 -139.5t-200 -55.5z M305 111q29 0 69 47t83 127q26 52 26 68q0 24 -24 48.5t-52 24.5q-26 0 -49 -23q-38 -36 -69.5 -104t-31.5 -122q0 -29 14 -47.5t34 -18.5z"/>
<glyph glyph-name="A" d="M372 284l-26 257h-3l-143 -257h172zM193 272l-73 -133q-48 -83 -48 -101q0 -14 15.5 -20.5t53.5 -9.5l25 -2l1 -6h-215l3 6l16 2q48 6 72.5 35t103.5 168l196 349l-4 30q38 11 62 46h8l58 -531q8 -60 20 -77t47 -19l28 -3l1 -6h-256l3 6l30 2q54 4 54 53q0 9 -1 14 l-20 197h-180z" unicode="A"/>
<glyph glyph-name="B" horiz-adv-x="562" unicode="B" d="M-17 6l37 4q51 6 52 16l122 576q1 5 -5 6.5t-37 5.5q-9 1 -14 2l-24 3l-1 6h233q98 0 148.5 -39.5t50.5 -95.5q0 -61 -53 -101.5t-163 -44.5v-2q92 -14 138.5 -56.5t46.5 -101.5q0 -90 -74.5 -137t-217.5 -47h-242zM260 11q84 2 127 55.5t43 127.5q0 67 -49 107.5 t-146 40.5h-18l-68 -318l72 -14zM298 350q81 0 121 45t40 111q0 108 -134 108h-50l-55 -257q44 -7 78 -7z"/>
<glyph glyph-name="C" horiz-adv-x="671" unicode="C" d="M367 -15q-143 0 -230 80t-87 203q0 153 107.5 262.5t266.5 109.5q115 0 190 -54l57 16l-29 -172h-4l-37 143q-20 22 -67 39.5t-99 17.5q-90 0 -160 -56t-105 -142.5t-35 -184.5q0 -116 61.5 -184.5t171.5 -68.5q68 0 119.5 32t100.5 94l30 39l4 -1l-60 -147l-34 -2 q-76 -24 -161 -24z"/>
<glyph glyph-name="D" horiz-adv-x="651" unicode="D" d="M-17 6l37 4q51 6 52 16l122 576q1 5 -5 6.5t-37 5.5q-9 1 -14 2l-24 3l-1 6l238 1q144 0 220.5 -73.5t76.5 -189.5q0 -158 -110 -260.5t-300 -102.5h-258zM238 9q104 0 179 52t110.5 134.5t35.5 183.5q0 108 -53.5 172.5t-167.5 64.5h-67l-125 -590z"/>
<glyph glyph-name="E" horiz-adv-x="572" unicode="E" d="M-19 6l37 4q53 6 54 16l122 576q1 5 -5 6.5t-37 5.5q-9 1 -14 2l-26 3l-1 6h425l14 -177l-5 -1l-4 14q-15 45 -26 69t-29 46.5t-43.5 31t-63.5 8.5h-104l-60 -284l71 1q68 2 92.5 17t46.5 63l6 14l6 -1l-42 -202l-6 1l1 13q2 18 2 25q0 36 -22 46t-92 12l-65 2l-66 -309 l146 -5q81 2 129 42.5t101 123.5l10 14l5 -1l-78 -188h-482z"/>
<glyph glyph-name="F" horiz-adv-x="543" unicode="F" d="M-19 6l41 4q48 4 50 16l122 576q0 3 -1 4.5t-6 3t-16 3t-31 3.5l-28 3l-1 6h439l10 -182l-6 -1l-4 13q-13 46 -22.5 69t-28.5 48t-48.5 34.5t-74.5 9.5h-101l-62 -290l72 1q69 2 93.5 16.5t44.5 63.5l6 13l6 -1l-42 -201l-5 1v13v15q0 43 -20 54.5t-91 13.5l-66 2 l-61 -294q-1 -4 2.5 -6t16 -4.5t37.5 -3.5l47 -3l1 -6h-276z"/>
<glyph glyph-name="G" horiz-adv-x="686" unicode="G" d="M354 -15q-137 0 -220.5 80.5t-83.5 202.5q0 151 105.5 262t268.5 111q119 0 190 -54l60 16l-34 -173l-3 1l-36 143q-20 23 -67.5 39.5t-98.5 16.5q-90 0 -160 -57t-105 -142t-35 -178q0 -116 62.5 -187.5t165.5 -71.5q63 0 112 27l48 227q0 3 -1.5 4.5t-8 3.5t-18.5 3 t-32 3l-37 3l-1 6h264l-4 -6l-36 -4q-51 -6 -52 -16l-44 -210l60 8l-1 -4q-153 -54 -258 -54z"/>
<glyph glyph-name="H" horiz-adv-x="709" unicode="H" d="M-17 6l37 4q51 6 52 16l122 576q1 5 -5 6.5t-37 5.5q-9 1 -14 2l-24 3l-1 6h254l-4 -6l-40 -4q-51 -6 -52 -16l-58 -276h328l60 279q0 3 -1 4.5t-7.5 3t-17 3t-30.5 3.5l-28 3l-1 6h254l-4 -6l-36 -4q-51 -6 -52 -16l-122 -576q-1 -5 5 -6.5t37 -5.5q9 -1 14 -2l24 -3 l1 -6h-254l3 6l41 4q50 4 52 16l59 287h-327l-62 -290q0 -5 8.5 -7.5t47.5 -6.5l28 -3l1 -6h-254z"/>
<glyph glyph-name="I" horiz-adv-x="322" unicode="I" d="M-11 6l41 4q50 4 52 16l122 576q0 3 -1 4.5t-7.5 3t-17 3t-30.5 3.5l-28 3l-1 6h258l-4 -6l-40 -4q-51 -6 -52 -16l-122 -576q0 -5 8.5 -7.5t47.5 -6.5l28 -3l1 -6h-258z"/>
<glyph glyph-name="J" horiz-adv-x="302" unicode="J" d="M-61 -167q-35 0 -54.5 14.5t-19.5 38.5q0 22 15 37.5t37 15.5q21 0 34.5 -14t13.5 -33q0 -30 -30 -47q10 -2 14 -2q38 0 70.5 43t48.5 123l126 593q0 3 -1 4.5t-7.5 3t-17 3t-30.5 3.5l-28 3l-1 6h258l-4 -6l-40 -4q-51 -6 -52 -16l-130 -615q-7 -36 -74.5 -93.5 t-127.5 -57.5z"/>
<glyph glyph-name="K" horiz-adv-x="658" unicode="K" d="M-17 6l39 4q48 4 50 16l122 576q0 3 -1 4.5t-6 3t-16 3t-31 3.5l-26 3l-1 6h259l-4 -6l-45 -4q-50 -4 -52 -16l-70 -333l202 167q90 75 126 111t36 51q0 16 -55 21l-37 3v6h240l-4 -6l-14 -1q-15 -1 -25.5 -3t-20 -4t-22.5 -10.5t-23.5 -15t-32 -25t-39.5 -33t-55.5 -46 t-69.5 -58.5l-24 -19l125 -318q22 -54 32.5 -64t44.5 -14l27 -2l1 -6h-253l3 6l28 2q43 3 43 35q0 15 -12 49l-100 261l-124 -102l-49 -228q0 -3 1 -4.5t7 -3.5t17.5 -3.5t30.5 -2.5l33 -3l1 -6h-259z"/>
<glyph glyph-name="L" horiz-adv-x="542" unicode="L" d="M-17 6l39 4q48 4 50 16l122 576q0 3 -1 4.5t-6 3t-16 3t-31 3.5l-26 3l-1 6h274l-4 -6l-60 -4q-50 -4 -52 -16l-124 -585l123 -5q43 0 75.5 11t59.5 38.5t43 51.5t43 71l7 13l7 -1l-68 -193h-457z"/>
<glyph glyph-name="M" horiz-adv-x="810" unicode="M" d="M-21 6l23 1q76 5 82 34l132 561q-12 10 -61 15l-26 2l-1 6h173l82 -517l2 -1l323 518h164l-4 -6l-36 -4q-50 -5 -52 -16l-122 -576q0 -5 8.5 -7.5t47.5 -6.5l24 -3l1 -6h-255l3 6l41 4q50 4 52 16l116 556h-2l-362 -582h-7l-92 556q-4 19 -9 31l-126 -548q-2 -8 5 -14 t27.5 -11t54.5 -7l17 -1l1 -6h-227z"/>
<glyph glyph-name="N" horiz-adv-x="664" unicode="N" d="M207 564h-2l-111 -524q-2 -8 4 -14t23.5 -11t46.5 -7l18 -2l1 -6h-207l3 6l20 2q73 8 78 34l116 532q-23 34 -85 43l-12 2l-1 6h166l262 -504h2l98 464q2 8 -4 14t-23 11t-46 7l-18 2l-1 6h207l-4 -6l-19 -2q-73 -7 -79 -34l-128 -588h-5z"/>
<glyph glyph-name="O" horiz-adv-x="715" unicode="O" d="M354 -13q-135 0 -217 86t-82 213q0 89 43.5 169.5t125 132t180.5 51.5q133 0 215 -87.5t82 -214.5q0 -146 -102.5 -248t-244.5 -102zM348 -3q76 0 139.5 54.5t98 142t34.5 185.5q0 111 -57 180.5t-155 69.5q-79 0 -142.5 -57.5t-96.5 -145.5t-33 -183q0 -110 57 -178 t155 -68z"/>
<glyph glyph-name="P" horiz-adv-x="539" unicode="P" d="M-31 6l51 4q50 4 52 16l122 576q0 3 -1 4.5t-7 3.5t-17.5 3.5t-30.5 2.5l-38 3l-1 6h266q94 0 148 -41.5t54 -103.5q0 -76 -64 -126.5t-167 -50.5q-55 0 -124 19l-63 -299q-1 -4 2.5 -6t16 -4.5t37.5 -3.5l48 -3l1 -6h-288zM323 314q75 0 118 52.5t43 132.5 q0 116 -127 116h-82l-59 -279q54 -22 107 -22z"/>
<glyph glyph-name="Q" horiz-adv-x="715" unicode="Q" d="M576 -178q-48 0 -90.5 8t-82.5 26.5t-68 53t-37 81.5q-112 18 -177.5 100.5t-65.5 194.5q0 89 43.5 169.5t125 132t180.5 51.5q132 0 214.5 -87.5t82.5 -214.5q0 -136 -88.5 -234t-217.5 -114q23 -93 82 -124.5t173 -31.5v-6q-21 -5 -74 -5zM348 -4q76 0 139.5 54.5 t98 142.5t34.5 186q0 111 -57 180.5t-155 69.5q-79 0 -142.5 -57.5t-96.5 -145.5t-33 -183q0 -111 57 -179t155 -68z"/>
<glyph glyph-name="R" horiz-adv-x="615" unicode="R" d="M-31 6l51 4q51 7 52 16l122 576q0 3 -1 4.5t-7 3.5t-17.5 3.5t-30.5 2.5l-38 3l-1 6h268q93 0 149 -40.5t56 -104.5q0 -69 -60 -114.5t-144 -49.5l98 -229q20 -46 39 -61t57 -19l12 -1l2 -6h-157l-131 318q-35 10 -70 27l-69 -322q0 -7 56 -14l38 -3l1 -6h-278zM326 329 q71 0 117.5 46t46.5 123q0 54 -35 85.5t-98 31.5h-82l-55 -261q56 -25 106 -25z"/>
<glyph glyph-name="S" horiz-adv-x="479" unicode="S" d="M216 -13q-60 0 -116.5 18t-91.5 42l23 141h4l10 -51q14 -68 58.5 -104.5t110.5 -36.5q69 0 113 41.5t44 106.5q0 47 -29 80.5t-98 75.5q-66 39 -100.5 78.5t-34.5 95.5q0 69 52 117.5t137 48.5q72 0 142 -38l42 8l-27 -156l-3 1l-38 129q-42 47 -110 47q-60 0 -96.5 -34 t-36.5 -88q0 -44 25.5 -73.5t95.5 -71.5q72 -43 109 -85t37 -99q0 -79 -60.5 -136t-161.5 -57z"/>
<glyph glyph-name="T" horiz-adv-x="632" unicode="T" d="M134 6l51 4q50 4 52 16l124 590h-77q-54 -3 -96 -41t-82 -102l-8 -13h-5l52 165h517l-18 -165h-4l-2 12q-12 77 -41 108.5t-88 35.5h-69l-126 -593q0 -3 1 -4.5t7 -3.5t17.5 -3.5t30.5 -2.5l38 -3l1 -6h-278z"/>
<glyph glyph-name="U" horiz-adv-x="661" unicode="U" d="M339 -15q-109 0 -174 41t-65 122q0 35 11 84l78 370q0 3 -1 4.5t-7 3.5t-17.5 3.5t-30.5 2.5l-38 3l-1 6h278l-4 -6l-50 -4q-50 -4 -52 -16l-77 -365q-9 -44 -9 -76q0 -145 185 -145q78 0 124.5 48.5t68.5 153.5l79 370q2 12 -15 20t-60 12l-18 2l-1 6h207l-4 -6l-19 -2 q-73 -8 -78 -34l-80 -372q-24 -114 -78.5 -170t-151.5 -56z"/>
<glyph glyph-name="V" horiz-adv-x="626" unicode="V" d="M176 521q-10 64 -19 79t-45 17l-28 2l-1 6h254l-4 -6l-32 -1q-30 -1 -42.5 -8.5t-12.5 -29.5q0 -4 2 -20l73 -460h1l219 386q50 85 50 102q0 14 -15.5 20t-53.5 9l-26 2l-1 6h215l-4 -6l-15 -2q-48 -6 -71.5 -33.5t-105.5 -168.5l-243 -429h-7z"/>
<glyph glyph-name="W" horiz-adv-x="969" unicode="W" d="M177 521q-10 63 -20 78.5t-46 17.5l-28 2v6h256l-4 -6l-31 -1q-29 -1 -42.5 -10t-13.5 -32q0 -10 1 -16l75 -464h2l213 365l-10 60q-10 61 -21 77.5t-47 18.5l-27 2l-1 6h255l-4 -6l-31 -1q-31 -2 -44 -10.5t-13 -30.5q0 -4 2 -18l71 -462h2l216 392q44 79 44 98 q0 15 -15.5 21t-55.5 9l-20 2l-1 6h213l-4 -6l-15 -2q-45 -6 -69 -32t-87 -139l-254 -460h-8l-73 456h-2l-266 -456h-7z"/>
<glyph glyph-name="X" horiz-adv-x="634" unicode="X" d="M-51 6l22 2q50 4 77.5 24t105.5 106l148 168l-95 213q-26 59 -41 77.5t-44 20.5l-24 2l-2 6h248l-4 -6l-32 -1q-41 0 -41 -26q0 -17 17 -59l77 -171l1 -1l118 135q68 77 68 97q0 11 -14.5 16t-49.5 8l-23 2l-1 6h234l-4 -6l-20 -2q-50 -4 -76.5 -22.5t-102.5 -102.5 l-124 -141q3 -6 9 -20.5t10 -22.5q6 -14 20.5 -46t21.5 -48q29 -66 61 -137q20 -42 31.5 -54.5t40.5 -14.5l23 -2l2 -6h-246l3 6l33 1q44 3 44 25q0 12 -9 31l-104 232h-1l-140 -161q-70 -81 -70 -101q0 -11 14 -16.5t47 -8.5l22 -2l1 -6h-234z"/>
<glyph glyph-name="Y" d="M123 6l51 4q50 4 52 16l54 255l-93 262q-14 42 -28 57t-47 17l-27 2l-1 6h260l-4 -6l-29 -1q-28 -2 -39.5 -8.5t-11.5 -21.5q0 -11 10 -41l85 -242h2l133 179q64 88 64 107q0 12 -14 17t-48 8l-23 3l-1 6h218l-4 -6l-21 -2q-38 -2 -66.5 -26t-91.5 -107l-144 -194 l-56 -267q0 -3 1 -4.5t7 -3.5t17.5 -3.5t30.5 -2.5l38 -3l1 -6h-278z" unicode="Y"/>
<glyph glyph-name="Z" horiz-adv-x="562" unicode="Z" d="M-11 4l517 610v2h-166q-46 0 -80.5 -11.5t-60.5 -35t-43 -49t-36 -63.5l-6 -12h-5l43 180h452l-1 -4l-516 -608l-1 -2l177 -1q67 0 114.5 23.5t75 59t57.5 96.5l7 14h7l-63 -203h-473z"/>
<glyph glyph-name="bracketleft" horiz-adv-x="306" unicode="[" d="M140 625h244l-2 -10h-233l-181 -852h233l-3 -10h-244z"/>
<glyph glyph-name="backslash" horiz-adv-x="232" unicode="\" d="M-6 630h10l210 -877h-10z"/>
<glyph glyph-name="bracketright" horiz-adv-x="306" unicode="]" d="M-87 -237h233l181 852h-233l2 10h244l-186 -872h-244z"/>
<glyph glyph-name="asciicircum" horiz-adv-x="370" unicode="^" d="M279 668h5l86 -188h-6l-93 113h-3l-148 -113h-5z"/>
<glyph glyph-name="underscore" horiz-adv-x="446" unicode="_" d="M-24 1h400v-29h-406z"/>
<glyph glyph-name="grave" horiz-adv-x="370" unicode="`" d="M140 678h72l73 -187h-7z"/>
<glyph glyph-name="a" horiz-adv-x="426" unicode="a" d="M277 -12q-15 0 -36.5 18t-21.5 33q0 28 44 142h-2q-65 -108 -99.5 -150t-70.5 -42q-34 0 -57.5 26t-23.5 67q0 74 47 155t107 141q52 54 103 54q24 0 35.5 -21t11.5 -74h2l34 101l64 -4l-78 -215l-60 -187l50 -6l69 110l6 -3q-71 -145 -124 -145zM125 38q53 0 150 195 q26 54 26 83t-21.5 53.5t-53.5 24.5q-27 0 -51 -24q-36 -36 -66.5 -117t-30.5 -142q0 -36 13.5 -54.5t33.5 -18.5z"/>
<glyph glyph-name="b" horiz-adv-x="403" unicode="b" d="M128 -15q-43 0 -75.5 21.5t-32.5 61.5q0 14 5 32l153 514q6 23 -5 23l-80 3l2 6l166 17l-20 -64q-30 -101 -57.5 -184t-47 -139.5t-25.5 -75.5q-3 -9 -1.5 -9.5t5.5 6.5q57 131 102.5 185.5t86.5 54.5q38 0 62 -30.5t24 -79.5q0 -63 -35.5 -141t-96.5 -137 q-64 -64 -130 -64zM146 0q32 0 66 34q46 46 78 126t32 149q0 80 -53 80q-67 0 -155 -220q-29 -72 -29 -106q0 -28 18.5 -45.5t42.5 -17.5z"/>
<glyph glyph-name="c" horiz-adv-x="331" unicode="c" d="M129 -12q-53 0 -85.5 41t-32.5 97q0 71 36 144t94 120.5t117 47.5q37 0 65 -21t28 -50q0 -21 -12.5 -35t-30.5 -14q-16 0 -29 11t-13 26q0 28 35 47l-6.5 6.5t-8 7.5t-8 5.5t-11.5 4.5t-13 1q-39 0 -77 -38q-39 -41 -67.5 -111.5t-28.5 -133.5q0 -112 77 -112 q38 0 65.5 23t65.5 83l7 -3q-84 -147 -167 -147z"/>
<glyph glyph-name="d" horiz-adv-x="426" unicode="d" d="M277 -12q-15 0 -36.5 18t-21.5 33q0 27 43 142h-2q-36 -59 -52 -84.5t-39.5 -56t-41 -41t-36.5 -10.5q-34 0 -57.5 26t-23.5 67q0 74 47 155.5t107 141.5q55 57 102 57q44 0 46 -102h2l85 280q6 23 -5 23l-100 3l2 6l186 17l-120 -362l-86 -269l50 -6l69 109l6 -3 q-71 -144 -124 -144zM125 38q54 0 145 185q31 59 31 93q0 29 -22 54t-53 25q-27 0 -51 -24q-36 -36 -66.5 -117.5t-30.5 -143.5q0 -35 13.5 -53.5t33.5 -18.5z"/>
<glyph glyph-name="e" horiz-adv-x="339" unicode="e" d="M129 -12q-53 0 -85.5 41t-32.5 97q0 72 35.5 145t92 120t112.5 47q43 0 70 -19t27 -51q0 -48 -61.5 -79.5t-190.5 -52.5q-15 -52 -15 -92q0 -112 81 -112q37 0 66 23.5t65 82.5l7 -3q-84 -147 -171 -147zM101 245q102 18 142.5 47t40.5 82t-43 53q-26 0 -63 -34 q-47 -47 -79 -147z"/>
<glyph glyph-name="f" horiz-adv-x="248" unicode="f" d="M-79 -180q-35 0 -55 15t-20 39q0 18 12.5 31t30.5 13q15 0 27.5 -12.5t12.5 -29.5q0 -19 -15 -35q21 -9 30 -9q25 0 42.5 21.5t37.5 87.5t45 195l51 256l-78 2l12 30l76 1q33 135 89 191q45 46 108 46q36 0 58.5 -16t22.5 -42q0 -19 -13.5 -31.5t-30.5 -12.5t-28 10.5 t-11 26.5q0 21 22 42q-3 3 -11 7q-14 6 -25 6q-42 0 -67.5 -51.5t-50.5 -175.5l99 -1l-12 -32h-93l-60 -258q-50 -214 -115 -279q-35 -35 -91 -35z"/>
<glyph glyph-name="g" horiz-adv-x="368" unicode="g" d="M104 -237q-84 0 -142 32t-58 80q0 37 46.5 73t110.5 53v2q-36 16 -53 32t-17 40q0 26 32 51t69 31l1 2q-47 42 -47 109q0 64 49 116.5t111 52.5q42 0 75 -33l126 23l-11 -51l-108 22v-2q38 -45 38 -98q0 -61 -52.5 -112.5t-113.5 -51.5q-33 0 -56 16q-26 -3 -44 -18 t-18 -31t21.5 -29t80.5 -32l18 -6q156 -51 156 -130q0 -57 -63.5 -99t-150.5 -42zM133 -226q57 0 95.5 28.5t38.5 67.5q0 62 -132 106q-56 19 -59 20q-53 -14 -82.5 -42t-29.5 -65q0 -51 47 -83t122 -32zM150 143q31 0 59 28q29 31 45 81t16 101q0 33 -14.5 53.5t-36.5 20.5 q-21 0 -49 -26q-30 -30 -48.5 -83t-18.5 -99q0 -45 18 -63q13 -13 29 -13z"/>
<glyph glyph-name="h" horiz-adv-x="426" unicode="h" d="M280 -12q-15 0 -40.5 14t-25.5 24q0 5 11 33t31 78.5t32 81.5q6 15 21.5 54.5t22.5 60t7 27.5q0 14 -13 24.5t-30 10.5q-24 0 -85 -85.5t-123 -218.5l-37 -95l-65 5q14 47 57 164q35 105 89 289q16 53 46 159q6 23 -5 23l-80 3l2 6l165 17l-19 -64q-93 -326 -146 -453 l6 -2q40 80 89 154.5t77 102.5q35 35 70 35q24 0 45 -18.5t21 -41.5q0 -29 -52 -157q-27 -69 -46 -116l-15 -36t-14 -35l51 -6l70 109l6 -3q-36 -73 -68.5 -108.5t-54.5 -35.5z"/>
<glyph glyph-name="i" horiz-adv-x="235" unicode="i" d="M88 -12q-16 0 -43.5 13t-27.5 22q0 7 32.5 90.5t68 174t40.5 106.5l-57 5l-68 -108l-6 3q71 144 136 144q18 0 32 -21t14 -45q0 -8 -11.5 -42t-30.5 -81t-35.5 -88t-34 -82.5t-18.5 -45.5l56 -7l70 109l6 -3q-36 -73 -68.5 -108.5t-54.5 -35.5zM232 530q-20 0 -30.5 12 t-10.5 31q0 23 13.5 40.5t30.5 17.5q20 0 31.5 -12t10.5 -30q0 -24 -14 -41.5t-31 -17.5z"/>
<glyph glyph-name="j" horiz-adv-x="215" unicode="j" d="M-119 -249q-23 0 -40.5 14.5t-17.5 35.5q0 15 11 27t29 12q17 0 28 -10t11 -26q0 -20 -16 -39l48 17q41 45 87 193l129 420l-52 4l-71 -108l-6 3q71 144 136 144q18 0 32 -21t14 -45q0 -23 -39.5 -143.5t-76.5 -212.5q-67 -167 -120 -220q-45 -45 -86 -45zM230 529 q-20 0 -31 12t-11 31q0 23 13.5 40.5t30.5 17.5q20 0 31.5 -12t11.5 -30q-1 -24 -14.5 -41.5t-30.5 -17.5z"/>
<glyph glyph-name="k" horiz-adv-x="404" unicode="k" d="M271 -12q-31 0 -55 20q-7 166 -15 195q-13 35 -41 36q-20 0 -35 -12l-74 -230l-66 5q1 5 11 32t24 67t23 65q35 105 89 289q16 53 46 159q6 23 -5 23l-80 3l2 6l164 17l-19 -64q-37 -127 -109 -355q4 1 9 1.5t10.5 1t8.5 0.5q86 33 123.5 56t47.5 46l-1 2q-35 13 -35 45 q0 15 12.5 28t29.5 13t29.5 -12.5t12.5 -31.5q0 -33 -31 -63t-118 -63l-47 -20q48 -6 68 -56t30 -161l33 -3l65 117l5 -2q-60 -154 -112 -154z"/>
<glyph glyph-name="l" horiz-adv-x="213" unicode="l" d="M66 -12q-16 0 -42 13.5t-24 22.5q0 6 89 297q8 26 89 293q6 23 -5 23l-80 3l2 6l165 17l-198 -631l48 -6l70 109l6 -3q-71 -144 -120 -144z"/>
<glyph glyph-name="m" horiz-adv-x="664" unicode="m" d="M521 -12q-16 0 -42.5 14.5t-26.5 23.5q0 5 10.5 32.5t31.5 79.5t32 81q6 16 21 54.5t22.5 59t7.5 27.5q0 14 -16 25.5t-34 11.5q-22 0 -76.5 -83.5t-118.5 -221.5l-35 -95l-66 5l46 137q12 35 32.5 89.5t33 89t12.5 41.5q0 15 -13 26.5t-30 11.5q-23 0 -78 -83.5 t-119 -221.5l-36 -95l-66 5l57 165l69 229l-47 4l-68 -109l-6 3q38 77 68 111t60 34q15 0 32 -21.5t17 -44.5q0 -48 -74 -226l6 -2q105 206 155 256q36 36 72 36q22 0 43 -21.5t21 -46.5q0 -34 -80 -222l6 -2q106 208 154 256q36 36 72 36q23 0 46.5 -19.5t23.5 -42.5 q0 -30 -51 -156q-6 -14 -22 -55t-24 -61l-15 -36t-14 -35l50 -6l71 110l6 -3q-71 -145 -120 -145z"/>
<glyph glyph-name="n" horiz-adv-x="453" unicode="n" d="M310 -12q-16 0 -43 14.5t-27 23.5q0 5 10.5 32.5t31.5 79.5t32 81q6 17 21.5 55t23 59t7.5 29q0 14 -13.5 24.5t-30.5 10.5q-24 0 -84.5 -86t-122.5 -219l-36 -95l-66 5l57 165l69 229l-47 4l-68 -109l-6 3q71 145 131 145q15 0 30.5 -21.5t15.5 -44.5q0 -21 -21 -87.5 t-51 -138.5l4 -2q40 79 89.5 154.5t76.5 102.5q35 35 71 35q23 0 44.5 -18.5t21.5 -41.5q0 -30 -52 -158q-6 -14 -22 -55t-24 -61l-15 -36t-14 -35l50 -6l71 110l6 -3q-71 -145 -120 -145z"/>
<glyph glyph-name="o" horiz-adv-x="376" unicode="o" d="M141 -11q-57 0 -89.5 50t-32.5 120q0 95 68.5 186t140.5 91q56 0 93 -50t37 -126q0 -98 -69.5 -184.5t-147.5 -86.5zM129 0q43 0 83 49.5t63 124.5q20 62 20 142q0 108 -52 108q-37 0 -77.5 -60t-66.5 -140q-21 -65 -21 -125q0 -46 14 -72.5t37 -26.5z"/>
<glyph glyph-name="p" horiz-adv-x="418" unicode="p" d="M-112 -247l19 1q38 4 42 10q1 1 2 4l188 627l-47 4l-68 -108l-6 3q67 144 128 144q16 0 31.5 -22t15.5 -44q0 -27 -18 -71h5q60 135 138 135q39 0 62.5 -38.5t23.5 -101.5q0 -113 -73 -210.5t-160 -97.5q-48 0 -70 61h-2l-84 -283q-2 -5 8 -8q12 -3 48 -4l31 -1l1 -6 h-218zM171 -3q30 0 65 35q43 43 72 122t29 142q0 98 -56 98q-45 0 -89.5 -84t-76.5 -201q-5 -15 -5 -42q0 -23 18 -46.5t43 -23.5z"/>
<glyph glyph-name="q" horiz-adv-x="411" unicode="q" d="M48 -247l33 1q47 1 52 17q4 14 41 132t45 143q4 12 19.5 63t24.5 73h-2q-66 -108 -100.5 -150.5t-69.5 -42.5q-34 0 -57.5 26t-23.5 67q0 74 47 155.5t107 141.5q55 57 102 57q44 0 46 -102h2l33 93l64 -4l-75 -204l-141 -451q-1 -3 1 -5.5t7.5 -4t12.5 -2t17 -1.5 q8 -1 12 -1l17 -1l3 -6h-220zM125 38q54 0 145 185q31 59 31 93q0 29 -22 54t-53 25q-27 0 -51 -24q-36 -36 -66.5 -117.5t-30.5 -143.5q0 -35 13.5 -53.5t33.5 -18.5z"/>
<glyph glyph-name="r" horiz-adv-x="369" unicode="r" d="M13 2l60 165l66 229l-47 4l-68 -109l-6 3q38 77 68 111t60 34q15 0 32 -21.5t17 -44.5q0 -33 -59 -192h3q61 114 90 163t50 69q28 26 53 26h3q27 -2 43 -20t15 -41q-2 -20 -15.5 -33.5t-30.5 -13.5h-2q-15 2 -25.5 12t-10.5 24q0 20 21 37l-26 11q-14 -6 -27.5 -21 t-49 -74t-94.5 -170l-53 -153z"/>
<glyph glyph-name="s" horiz-adv-x="301" unicode="s" d="M113 -12q-50 0 -86 24t-36 62q0 20 12.5 33.5t29.5 13.5q15 0 25.5 -11.5t10.5 -26.5q0 -14 -10 -29t-22 -20q13 -14 37.5 -25.5t47.5 -11.5q42 0 62.5 28.5t20.5 61.5q0 9 -2 17.5t-7 17.5t-8.5 14.5t-12.5 15t-12 13t-14.5 14.5t-13.5 13q-28 28 -40.5 42.5t-24.5 37 t-12 45.5q0 50 42.5 85t92.5 35q47 0 75.5 -19.5t29.5 -59.5q0 -21 -12.5 -33t-29.5 -12q-16 0 -26 11t-10 28q0 14 9.5 27t22.5 18q-30 30 -62 30q-39 0 -59 -26t-20 -58q0 -17 11.5 -36t20.5 -29t32 -33l15 -15l17 -17t15 -16.5t15 -19.5t11 -19t8.5 -22t2.5 -23 q0 -51 -46 -88t-100 -37z"/>
<glyph glyph-name="t" horiz-adv-x="257" unicode="t" d="M94 -12q-18 0 -51 13.5t-31 23.5l110 367l-74 2l12 30l73 1l41 133h66l-40 -133l84 -1l-4 -32h-90l-115 -360l64 -6l68 109l6 -3q-35 -73 -66 -108.5t-53 -35.5z"/>
<glyph glyph-name="u" horiz-adv-x="453" unicode="u" d="M304 -13q-15 0 -30 21.5t-15 44.5t20 89t51 138l-4 2q-41 -80 -89.5 -155.5t-75.5 -102.5q-35 -35 -71 -35q-23 0 -44.5 18.5t-21.5 41.5q0 30 52 158q24 62 46 117q2 6 12.5 31.5t15.5 39.5l-51 5l-69 -110l-6 3q71 145 120 145q16 0 43 -14.5t27 -23.5 q0 -5 -10.5 -32.5t-31.5 -79.5t-32 -81q-52 -136 -52 -143q0 -14 13.5 -24.5t30.5 -10.5q24 0 84.5 85.5t122.5 218.5l36 96l65 -5l-57 -165l-70 -228l47 -5l69 109l6 -3q-68 -145 -131 -145z"/>
<glyph glyph-name="v" horiz-adv-x="376" unicode="v" d="M121 -12q-36 0 -63.5 29.5t-27.5 68.5q0 26 14 60t27.5 57.5t51 81.5t54.5 86l-94 24l-59 -100l-5 3q37 78 62 111t48 33q20 0 52 -6t32 -10q0 -9 -30.5 -58.5t-61 -114.5t-30.5 -113q0 -47 23 -75t57 -28q35 0 75.5 53t69 129t32.5 141q-9 -4 -19 -4q-19 0 -32 12.5 t-13 28.5t12.5 29t29.5 13q23 0 36 -17t13 -44q0 -49 -47 -161t-105 -174q-52 -55 -102 -55z"/>
<glyph glyph-name="w" horiz-adv-x="556" unicode="w" d="M93 -12q-27 0 -46 24.5t-19 59.5q0 36 27 86.5t69 114t59 96.5l-98 26l-61 -100l-5 3q36 77 63.5 110.5t51.5 33.5q18 0 54.5 -6.5t36.5 -9.5q0 -10 -33.5 -65.5t-67.5 -123.5t-34 -109q0 -76 52 -76q74 0 215 289l-10 7q-10 6 -20 18.5t-10 27.5q0 20 12 31.5t32 11.5 q16 0 27.5 -13t11.5 -30q0 -23 -30 -65t-44 -81q-27 -74 -27 -119q0 -77 67 -77q38 0 75.5 47t61 118.5t23.5 138.5q-5 -1 -13 -1q-20 0 -32 12.5t-12 27.5q0 18 12 31t29 13q19 0 32.5 -15t13.5 -36q0 -58 -44 -178t-100 -176q-44 -46 -82 -46q-26 0 -44.5 23.5t-18.5 53.5 q0 43 43 164q-66 -115 -117.5 -178t-99.5 -63z"/>
<glyph glyph-name="x" horiz-adv-x="420" unicode="x" d="M37 -12q-24 0 -41.5 15t-17.5 38q0 20 11.5 32t29.5 12q14 0 23 -9.5t9 -22.5t-11 -24q0 -6 7.5 -11.5t15.5 -4.5q50 4 120 177q-20 154 -36 186q-9 17 -20 17h-33l-43 -81l-8 3q52 123 106 123q34 0 53.5 -43t33.5 -121h2q40 96 65 130t66 34q24 0 41 -14.5t17 -37.5 q0 -20 -12 -32t-28 -12q-14 0 -23 10t-9 23q0 12 8 20q0 5 -7 9t-15 4q-43 -4 -101 -152q2 -16 6.5 -45.5t7 -46t6.5 -41t7.5 -38t8.5 -27.5t10.5 -20t12.5 -6l32 1l44 80l8 -3q-26 -63 -54 -92.5t-52 -29.5q-36 0 -56 48.5t-35 133.5h-2q-46 -104 -75 -143t-72 -39z"/>
<glyph glyph-name="y" horiz-adv-x="411" unicode="y" d="M-27 -182q-83 0 -83 56q0 19 12.5 31.5t31.5 12.5q18 0 29 -11.5t11 -29.5q0 -19 -11 -35q9 -4 16 -5q15 -5 22 -5q101 15 204 146q-8 222 -33 323t-69 101h-18l-60 -111l-7 3q47 99 64 119q22 26 53 26q61 0 90 -86t35 -300q0 2 2 0q103 190 102 332q-17 -16 -36 -16 q-17 0 -28.5 11t-11.5 24v5q0 16 11.5 26.5t29.5 10.5q22 0 36 -17t14 -50q0 -106 -61.5 -239.5t-151.5 -223.5q-98 -98 -193 -98z"/>
<glyph glyph-name="z" horiz-adv-x="349" unicode="z" d="M216 -22q-39 4 -94 50t-78 46h-7l-23 -85q-16 3 -28 13.5t-12 23.5q0 19 14 31.5t31 16.5l258 265q-6 -2 -19 -2q-25 0 -49 15t-46 36.5t-31 26.5h-1q-5 0 -22.5 -17.5t-17.5 -21.5q0 -1 1 -1q37 -5 37 -38q0 -17 -11 -28.5t-29 -11.5q-17 0 -26.5 10.5t-9.5 28.5 q0 32 43 66t81 38q34 -5 53.5 -25.5t30 -40.5t20.5 -23l6 1l23 88q15 -4 27 -14t12 -23q-1 -19 -15.5 -34t-30.5 -17l-258 -266q16 4 34 4q12 0 24 -1.5t24.5 -6t22 -7.5t22.5 -10.5t19.5 -11t19.5 -13t16.5 -12t16 -12.5t13.5 -10h1q5 0 18 16.5t13 20.5l-19 16 q-20 16 -20 27q0 17 11.5 28t30.5 11q15 0 25 -12.5t10 -30.5q0 -33 -38.5 -66.5t-72.5 -37.5z"/>
<glyph glyph-name="braceleft" horiz-adv-x="306" unicode="{" d="M210 -254q-74 13 -119.5 50t-45.5 91q0 13 3 28q10 44 43.5 112t40.5 98q2 10 2 16q0 32 -33 50.5t-99 30.5l-2 5l5 4q70 0 113.5 13t50.5 53q4 21 4 50q0 14 -1.5 45t-1.5 47q0 40 8 76q15 61 71.5 93t137.5 32h18v-5q-80 -2 -117 -23.5t-47 -69.5q-6 -24 -6 -62 q0 -14 1 -42.5t1 -43.5q0 -41 -6 -70q-21 -88 -178 -100l-1 -5q129 -36 129 -115q0 -5 -2 -19q-8 -41 -42 -110.5t-41 -100.5q-3 -15 -3 -27q0 -34 27.5 -56.5t92.5 -39.5z"/>
<glyph glyph-name="bar" horiz-adv-x="153" unicode="|" d="M72 630h9v-877h-9v877z"/>
<glyph glyph-name="braceright" horiz-adv-x="306" unicode="}" d="M-92 -245q80 2 117 24t47 70q4 16 4 37t-7 68.5t-7 72.5q0 23 4 42q22 93 177 101l1 5q-128 36 -128 115q0 5 2 19q8 41 50 109t49 99q4 20 4 28q0 35 -28.5 57t-93.5 38l3 4q74 -11 119.5 -48t45.5 -91q0 -15 -3 -28q-10 -43 -51 -110.5t-48 -98.5q-1 -5 -1 -14 q0 -33 33 -52t97 -31l2 -4l-5 -4q-73 0 -113 -13.5t-50 -52.5q-3 -15 -3 -30q0 -21 7 -67.5t7 -72.5q0 -29 -5 -50q-13 -60 -70.5 -93.5t-138.5 -33.5h-17v5z"/>
<glyph glyph-name="asciitilde" horiz-adv-x="370" unicode="~" d="M250 150q-28 0 -83 30t-73 30q-20 0 -32.5 -10t-20.5 -42h-6q13 54 30.5 76.5t48.5 22.5q26 0 81.5 -30t74.5 -30q40 0 53 52h7q-15 -54 -32 -76.5t-48 -22.5z"/>
<glyph glyph-name="nbspace" horiz-adv-x="130" unicode=" "/>
<glyph glyph-name="exclamdown" horiz-adv-x="235" unicode="¡" d="M66 -20q-35 4 -35 30q0 10 6 30l125 393q1 6 6 2q1 -1 1 -3l-48 -401q-7 -52 -44 -52q-1 0 -4 0.5t-5 0.5h-2zM195 532q-23 0 -37 14t-14 35t14.5 36.5t36.5 15.5q21 0 36.5 -15.5t15.5 -36.5q0 -20 -15 -34.5t-37 -14.5z"/>
<glyph glyph-name="cent" horiz-adv-x="331" unicode="¢" d="M266 354q0 21 18 36l9 19q-17 17 -39 17q-39 0 -77 -38q-39 -39 -67.5 -110t-28.5 -135q0 -75 36 -99q16 32 41.5 85t33.5 69l74 154v2zM93 -6q-38 13 -60 49t-22 82q0 71 36 144t94 120.5t117 47.5q24 0 44 -9l85 176h12q-9 -18 -23.5 -48.5t-19.5 -41.5l-44 -91 q39 -20 39 -57q0 -21 -12.5 -34.5t-30.5 -13.5q-25 0 -37 20l-144 -300q13 -6 31 -6q38 0 66 23t65 82l7 -3q-83 -146 -167 -146q-13 0 -25 3l-71 -148h-12z"/>
<glyph glyph-name="sterling" horiz-adv-x="518" unicode="£" d="M77 291l3 10h108q0 6 -0.5 19.5t-0.5 21.5q0 117 69 203t176 86q53 0 85 -20.5t32 -51.5q0 -19 -12.5 -33t-32.5 -14q-19 0 -29.5 12.5t-10.5 30.5q0 23 18 40q-20 25 -64 25q-50 0 -88.5 -34.5t-52.5 -98.5q-7 -32 -10 -98t-5 -88h128l2 -10h-131q-1 -27 -8 -60 q-17 -74 -71 -146q128 -40 175 -40q42 0 68.5 24.5t43.5 86.5l6 -1q-15 -76 -58 -120.5t-96 -44.5q-33 0 -66.5 10.5t-52 20.5t-50.5 30q-60 -62 -117 -62q-26 0 -42.5 15t-16.5 36q0 29 23 49t63 20t104 -19q31 52 31 98q0 15 -8 103h-112zM142 57q-58 36 -99 36 q-26 0 -41.5 -15.5t-15.5 -37.5q0 -18 14 -30.5t35 -12.5q54 0 107 60z"/>
<glyph glyph-name="currency" horiz-adv-x="478" unicode="¤" d="M264 -14q-88 0 -139.5 69t-55.5 168h-67l3 10h64q0 18 6 52q2 35 9 68h-55l3 10h56q38 120 124.5 196.5t179.5 76.5q63 0 100.5 -26t37.5 -59q0 -18 -13 -32.5t-32 -14.5q-38 0 -38 40q0 26 17 43q-13 39 -70 39q-77 0 -140.5 -73t-91.5 -190h199l3 -10h-205 q-6 -27 -6 -55q-6 -32 -6 -65h187l2 -10h-188q4 -86 46 -140.5t115 -54.5q75 0 141 76l6 -4q-90 -114 -192 -114z"/>
<glyph glyph-name="yen" horiz-adv-x="595" unicode="¥" d="M93 294l-3 10h185l-87 239q-14 41 -28.5 56.5t-46.5 17.5l-26 2l-1 6h259l-4 -6l-30 -1q-50 -3 -50 -30q0 -11 10 -41l81 -231h3l133 179q57 78 57 96q0 12 -14 17t-47 8l-23 3l-1 6h217l-4 -6l-23 -2q-39 -2 -62.5 -21.5t-86.5 -101.5l-142 -190h181l-3 -10h-181 l-25 -119h179l2 -10h-183l-30 -142q0 -3 1 -4.5t7 -3.5t17.5 -3.5t30.5 -2.5l38 -3l1 -6h-279l3 6l51 4q50 4 52 16l29 139h-188l4 10h186l26 119h-185z"/>
<glyph glyph-name="section" horiz-adv-x="386" unicode="§" d="M137 -44q-50 0 -84.5 21.5t-34.5 50.5q0 19 11 31.5t29 12.5q16 0 24.5 -9.5t8.5 -23.5q0 -25 -22 -39q23 -35 72 -35q41 0 68 26.5t27 53.5q0 35 -26 66.5t-74 67.5q-100 74 -100 140q0 43 34.5 78.5t82.5 50.5q-20 25 -20 67q0 49 40.5 87.5t102.5 38.5 q49 0 81.5 -22.5t32.5 -52.5q0 -16 -12 -28t-30 -12q-16 0 -25 10.5t-9 24.5q0 25 21 37q-19 34 -65 34q-39 0 -63.5 -26.5t-24.5 -56.5q0 -23 15.5 -46.5t33 -38.5t51.5 -41q102 -71 102 -141q0 -43 -35 -77.5t-86 -54.5q22 -29 22 -71q0 -49 -44.5 -86t-103.5 -37z M258 156q75 37 75 96q0 52 -82 113q-79 58 -93 77q-31 -13 -52 -38t-21 -57q0 -29 20 -54t61 -55q71 -53 92 -82z"/>
<glyph glyph-name="dieresis" horiz-adv-x="370" unicode="¨" d="M337 509q-21 0 -32.5 14.5t-11.5 30.5q0 17 11.5 32.5t32.5 15.5q22 0 33.5 -15.5t11.5 -32.5q0 -15 -12 -30t-33 -15zM177 509q-21 0 -33 15t-12 30q0 17 11.5 32.5t33.5 15.5q21 0 32.5 -15.5t11.5 -32.5q0 -16 -11.5 -30.5t-32.5 -14.5z"/>
<glyph glyph-name="copyright" horiz-adv-x="704" unicode="©" d="M364 -14q-136 0 -231.5 95.5t-95.5 231.5q0 135 96 231.5t231 96.5t231 -96.5t96 -231.5q0 -136 -95.5 -231.5t-231.5 -95.5zM364 -5q131 0 224 93.5t93 224.5q0 132 -93 225.5t-224 93.5t-224 -93.5t-93 -225.5q0 -131 93 -224.5t224 -93.5zM373 114q-91 0 -149.5 54.5 t-58.5 141.5q0 86 59 142t153 56q56 0 102 -26l33 15l5 -110h-3l-51 89q-35 26 -88 26q-72 0 -114.5 -53t-42.5 -134q0 -86 45 -140.5t114 -54.5q49 0 77.5 21.5t57.5 70.5l15 25h3l-22 -95l-20 -5q-44 -23 -115 -23z"/>
<glyph glyph-name="ordfeminine" horiz-adv-x="336" unicode="ª" d="M135 286q-27 0 -45 20t-18 52q0 58 36.5 120.5t83.5 109.5q41 44 81 44q18 0 27 -16.5t9 -58.5l2 3l27 77l49 -3l-61 -168l-47 -146l39 -5l54 85l4 -2q-55 -112 -96 -112q-12 0 -28.5 13.5t-16.5 25.5q0 23 34 110h-1q-30 -47 -42 -65t-31 -43t-32 -33t-28 -8zM161 323 q42 0 118 154q20 38 20 65q0 22 -16.5 41t-41.5 19q-21 0 -41 -20q-28 -28 -52 -90.5t-24 -110.5q0 -28 11 -43t26 -15z"/>
<glyph glyph-name="guillemotleft" horiz-adv-x="397" unicode="«" d="M185 222l2 7l231 163l3 -4l-160 -172l90 -159l-5 -5zM13 222l1 7l229 153l3 -4l-158 -162l92 -150l-5 -4z"/>
<glyph glyph-name="registered" horiz-adv-x="704" unicode="®" d="M364 -14q-136 0 -231.5 95.5t-95.5 231.5q0 135 96 231.5t231 96.5t231 -96.5t96 -231.5q0 -136 -95.5 -231.5t-231.5 -95.5zM364 -5q131 0 224 93.5t93 224.5q0 132 -93 225.5t-224 93.5t-224 -93.5t-93 -225.5q0 -131 93 -224.5t224 -93.5zM195 130l30 3q9 1 19 4.5 t10 6.5v343q0 5 -34 8l-24 2l-2 4h154q145 0 145 -97q0 -33 -26.5 -59t-66.5 -34l87 -133q17 -26 30 -34.5t37 -12.5l7 -1l2 -4h-99l-4 8l-110 177q-32 6 -48 11v-181q0 -7 35 -9l23 -2l2 -4h-169zM354 320q42 0 65 22t23 64q0 41 -26 64t-75 23h-9l-30 -1v-161 q30 -11 52 -11z"/>
<glyph glyph-name="macron" horiz-adv-x="369" unicode="¯" d="M122 521l6 13l6 12h249l-11 -25h-250z"/>
<glyph glyph-name="degree" horiz-adv-x="283" unicode="°" d="M205 380q-57 0 -92.5 38t-35.5 92t35.5 92t91.5 38t91.5 -38t35.5 -92q0 -53 -35.5 -91.5t-90.5 -38.5zM205 392q52 0 82 33.5t30 84.5q0 49 -31.5 83.5t-81.5 34.5t-81.5 -34.5t-31.5 -83.5q0 -50 31 -84t83 -34z"/>
<glyph glyph-name="plusminus" horiz-adv-x="315" unicode="±" d="M0 6l35 1q47 1 51 16l88 424v1l1 2q0 7 -49 11l-29 1l-1 6h231l-4 -6l-33 -1q-47 -1 -51 -16l-89 -424v-1l-1 -2q0 -7 50 -11l28 -1l1 -6h-231z"/>
<glyph glyph-name="acute" horiz-adv-x="370" unicode="´" d="M346 678h81l-217 -187h-6z"/>
<glyph glyph-name="paragraph" horiz-adv-x="414" unicode="¶" d="M365 277h-7q-131 0 -207.5 42.5t-76.5 122.5q0 90 67.5 137t185.5 47h123l-140 -657h-10z"/>
<glyph glyph-name="periodcentered" horiz-adv-x="185" unicode="·" d="M92 163q-21 0 -36.5 16t-15.5 37q0 20 15 35t37 15q23 0 37 -14.5t14 -35.5q0 -22 -14 -37.5t-37 -15.5z"/>
<glyph glyph-name="cedilla" horiz-adv-x="370" unicode="¸" d="M-8 -240q165 7 165 84q0 47 -78 47q-18 0 -55 -7l2 7l114 103h11l-69 -64q8 1 22 1q47 0 75 -19t28 -49q0 -54 -61 -81t-153 -27z"/>
<glyph glyph-name="ordmasculine" horiz-adv-x="297" unicode="º" d="M175 285q-44 0 -69.5 39t-25.5 93q0 75 53 147t110 72q45 0 73 -38.5t28 -98.5q0 -77 -54 -145.5t-115 -68.5zM165 293q35 0 65.5 38.5t49.5 99.5q16 48 16 111q0 85 -41 85q-29 0 -61 -48.5t-52 -110.5q-16 -45 -16 -98q0 -35 10.5 -56t28.5 -21z"/>
<glyph glyph-name="guillemotright" horiz-adv-x="397" unicode="»" d="M-19 56l160 171l-91 160l5 5l162 -170l-2 -6l-232 -164zM156 66l157 161l-92 150l5 4l163 -159l-1 -6l-230 -154z"/>
<glyph glyph-name="questiondown" horiz-adv-x="299" unicode="¿" d="M168 -14q-71 0 -113 45t-42 109q0 60 26 93t98 59q53 18 76 33.5t23 42.5q0 32 -44 76l6 1q68 -64 68 -107q0 -34 -26 -58t-98 -49t-95 -41.5t-23 -45.5q0 -34 36 -62.5t112 -28.5q33 0 59 7q4 -7 4 -18q0 -27 -14 -41.5t-53 -14.5zM235 539q-23 0 -37 14t-14 35 t14.5 36.5t36.5 15.5q21 0 36.5 -15.5t15.5 -36.5q0 -20 -15 -34.5t-37 -14.5z"/>
<glyph glyph-name="Agrave" d="M372 284l-26 257h-3l-143 -257h172zM193 272l-73 -133q-48 -83 -48 -101q0 -14 15.5 -20.5t53.5 -9.5l25 -2l1 -6h-215l3 6l16 2q48 6 72.5 35t103.5 168l196 349l-4 30q38 11 62 46h8l58 -531q8 -60 20 -77t47 -19l28 -3l1 -6h-256l3 6l30 2q54 4 54 53q0 9 -1 14 l-20 197h-180zM264 845h72l73 -187h-7z" unicode="À"/>
<glyph glyph-name="Aacute" d="M372 284l-26 257h-3l-143 -257h172zM193 272l-73 -133q-48 -83 -48 -101q0 -14 15.5 -20.5t53.5 -9.5l25 -2l1 -6h-215l3 6l16 2q48 6 72.5 35t103.5 168l196 349l-4 30q38 11 62 46h8l58 -531q8 -60 20 -77t47 -19l28 -3l1 -6h-256l3 6l30 2q54 4 54 53q0 9 -1 14 l-20 197h-180zM490 845h81l-217 -187h-6z" unicode="Á"/>
<glyph glyph-name="Acircumflex" d="M372 284l-26 257h-3l-143 -257h172zM193 272l-73 -133q-48 -83 -48 -101q0 -14 15.5 -20.5t53.5 -9.5l25 -2l1 -6h-215l3 6l16 2q48 6 72.5 35t103.5 168l196 349l-4 30q38 11 62 46h8l58 -531q8 -60 20 -77t47 -19l28 -3l1 -6h-256l3 6l30 2q54 4 54 53q0 9 -1 14 l-20 197h-180zM426 835h5l86 -188h-6l-93 113h-3l-148 -113h-5z" unicode="Â"/>
<glyph glyph-name="Atilde" d="M372 284l-26 257h-3l-143 -257h172zM193 272l-73 -133q-48 -83 -48 -101q0 -14 15.5 -20.5t53.5 -9.5l25 -2l1 -6h-215l3 6l16 2q48 6 72.5 35t103.5 168l196 349l-4 30q38 11 62 46h8l58 -531q8 -60 20 -77t47 -19l28 -3l1 -6h-256l3 6l30 2q54 4 54 53q0 9 -1 14 l-20 197h-180zM464 664q-27 0 -82 30t-74 30q-20 0 -32.5 -10t-20.5 -42h-6q13 54 30.5 76.5t48.5 22.5q26 0 81.5 -30t74.5 -30q40 0 53 52h7q-15 -54 -32 -76.5t-48 -22.5z" unicode="Ã"/>
<glyph glyph-name="Adieresis" d="M372 284l-26 257h-3l-143 -257h172zM193 272l-73 -133q-48 -83 -48 -101q0 -14 15.5 -20.5t53.5 -9.5l25 -2l1 -6h-215l3 6l16 2q48 6 72.5 35t103.5 168l196 349l-4 30q38 11 62 46h8l58 -531q8 -60 20 -77t47 -19l28 -3l1 -6h-256l3 6l30 2q54 4 54 53q0 9 -1 14 l-20 197h-180zM476 676q-21 0 -32.5 14.5t-11.5 30.5q0 17 11.5 32.5t32.5 15.5q22 0 33.5 -15.5t11.5 -32.5q0 -15 -12 -30t-33 -15zM316 676q-21 0 -33 15t-12 30q0 17 11.5 32.5t33.5 15.5q21 0 32.5 -15.5t11.5 -32.5q0 -16 -11.5 -30.5t-32.5 -14.5z" unicode="Ä"/>
<glyph glyph-name="Aring" d="M372 284l-26 255h-3l-143 -255h172zM194 273l-75 -134q-48 -83 -48 -101q0 -14 15.5 -20.5t54.5 -9.5l25 -2l1 -6h-215l3 6l16 2q35 4 54 17.5t43 49.5t80 135l228 409q-26 9 -41.5 32.5t-15.5 52.5q0 38 24 64t65 26t65 -26t24 -64q0 -37 -23.5 -62.5t-62.5 -27.5 l56 -509q8 -60 20 -77t47 -19l28 -3l1 -6h-256l3 6l30 2q54 4 54 53q0 9 -1 14l-20 198h-179zM408 623q36 0 57.5 23.5t21.5 57.5t-21.5 57.5t-57.5 23.5t-57.5 -23.5t-21.5 -57.5t21.5 -57.5t57.5 -23.5z" unicode="Å"/>
<glyph glyph-name="AE" horiz-adv-x="839" unicode="Æ" d="M397 284l62 295h-2l-235 -295h175zM213 273l-91 -115q-9 -12 -22 -29t-20 -25.5t-15.5 -20t-13 -18t-9 -14t-6 -12.5t-1.5 -9q0 -18 58 -22l26 -2l3 -6h-220l3 6l31 3q41 4 68.5 28t112.5 128l331 416q9 13 9 18q0 15 -64 18l-37 2l-1 6h453l14 -177l-5 -1l-5 14 q-15 46 -25.5 69t-28.5 45.5t-43.5 31t-63.5 8.5h-104l-60 -283l72 1q67 2 91.5 17t46.5 63l6 14l6 -1l-42 -202l-6 1l1 13q2 18 2 24q0 36 -22.5 46.5t-91.5 12.5l-66 2l-64 -308l146 -5q81 2 129 42.5t100 122.5l10 14l5 -1l-78 -188h-489v1q0 1 1 3l1 1q1 1 1 2l46 4 q50 4 52 16l51 246h-182z"/>
<glyph glyph-name="Ccedilla" horiz-adv-x="671" unicode="Ç" d="M348 -15q-134 6 -216 85t-82 198q0 153 107.5 262.5t266.5 109.5q115 0 190 -54l57 16l-29 -172h-4l-37 143q-20 22 -67 39.5t-99 17.5q-90 0 -160 -56t-105 -142.5t-35 -184.5q0 -116 61.5 -184.5t171.5 -68.5q68 0 119.5 32t100.5 94l30 39l4 -1l-60 -147l-34 -2 q-76 -24 -161 -24h-8l-59 -55q8 1 22 1q47 0 75 -19t28 -49q0 -54 -61 -81t-153 -27l-1 5q165 7 165 84q0 47 -78 47q-18 0 -55 -7l2 7z"/>
<glyph glyph-name="Egrave" horiz-adv-x="572" unicode="È" d="M-19 6l37 4q53 6 54 16l122 576q1 5 -5 6.5t-37 5.5q-9 1 -14 2l-26 3l-1 6h425l14 -177l-5 -1l-4 14q-15 45 -26 69t-29 46.5t-43.5 31t-63.5 8.5h-104l-60 -284l71 1q68 2 92.5 17t46.5 63l6 14l6 -1l-42 -202l-6 1l1 13q2 18 2 25q0 36 -22 46t-92 12l-65 2l-66 -309 l146 -5q81 2 129 42.5t101 123.5l10 14l5 -1l-78 -188h-482zM228 845h72l73 -187h-7z"/>
<glyph glyph-name="Eacute" horiz-adv-x="572" unicode="É" d="M-19 6l37 4q53 6 54 16l122 576q1 5 -5 6.5t-37 5.5q-9 1 -14 2l-26 3l-1 6h425l14 -177l-5 -1l-4 14q-15 45 -26 69t-29 46.5t-43.5 31t-63.5 8.5h-104l-60 -284l71 1q68 2 92.5 17t46.5 63l6 14l6 -1l-42 -202l-6 1l1 13q2 18 2 25q0 36 -22 46t-92 12l-65 2l-66 -309 l146 -5q81 2 129 42.5t101 123.5l10 14l5 -1l-78 -188h-482zM470 845h81l-217 -187h-6z"/>
<glyph glyph-name="Ecircumflex" horiz-adv-x="572" unicode="Ê" d="M-19 6l37 4q53 6 54 16l122 576q1 5 -5 6.5t-37 5.5q-9 1 -14 2l-26 3l-1 6h425l14 -177l-5 -1l-4 14q-15 45 -26 69t-29 46.5t-43.5 31t-63.5 8.5h-104l-60 -284l71 1q68 2 92.5 17t46.5 63l6 14l6 -1l-42 -202l-6 1l1 13q2 18 2 25q0 36 -22 46t-92 12l-65 2l-66 -309 l146 -5q81 2 129 42.5t101 123.5l10 14l5 -1l-78 -188h-482zM386 835h5l86 -188h-6l-93 113h-3l-148 -113h-5z"/>
<glyph glyph-name="Edieresis" horiz-adv-x="572" unicode="Ë" d="M-19 6l37 4q53 6 54 16l122 576q1 5 -5 6.5t-37 5.5q-9 1 -14 2l-26 3l-1 6h425l14 -177l-5 -1l-4 14q-15 45 -26 69t-29 46.5t-43.5 31t-63.5 8.5h-104l-60 -284l71 1q68 2 92.5 17t46.5 63l6 14l6 -1l-42 -202l-6 1l1 13q2 18 2 25q0 36 -22 46t-92 12l-65 2l-66 -309 l146 -5q81 2 129 42.5t101 123.5l10 14l5 -1l-78 -188h-482zM434 676q-21 0 -32.5 14.5t-11.5 30.5q0 17 11.5 32.5t32.5 15.5q22 0 33.5 -15.5t11.5 -32.5q0 -15 -12 -30t-33 -15zM274 676q-21 0 -33 15t-12 30q0 17 11.5 32.5t33.5 15.5q21 0 32.5 -15.5t11.5 -32.5 q0 -16 -11.5 -30.5t-32.5 -14.5z"/>
<glyph glyph-name="Igrave" horiz-adv-x="322" unicode="Ì" d="M-11 6l41 4q50 4 52 16l122 576q0 3 -1 4.5t-7.5 3t-17 3t-30.5 3.5l-28 3l-1 6h258l-4 -6l-40 -4q-51 -6 -52 -16l-122 -576q0 -5 8.5 -7.5t47.5 -6.5l28 -3l1 -6h-258zM138 845h72l73 -187h-7z"/>
<glyph glyph-name="Iacute" horiz-adv-x="322" unicode="Í" d="M-11 6l41 4q50 4 52 16l122 576q0 3 -1 4.5t-7.5 3t-17 3t-30.5 3.5l-28 3l-1 6h258l-4 -6l-40 -4q-51 -6 -52 -16l-122 -576q0 -5 8.5 -7.5t47.5 -6.5l28 -3l1 -6h-258zM353 845h81l-217 -187h-6z"/>
<glyph glyph-name="Icircumflex" horiz-adv-x="322" unicode="Î" d="M-11 6l41 4q50 4 52 16l122 576q0 3 -1 4.5t-7.5 3t-17 3t-30.5 3.5l-28 3l-1 6h258l-4 -6l-40 -4q-51 -6 -52 -16l-122 -576q0 -5 8.5 -7.5t47.5 -6.5l28 -3l1 -6h-258zM283 835h5l86 -188h-6l-93 113h-3l-148 -113h-5z"/>
<glyph glyph-name="Idieresis" horiz-adv-x="322" unicode="Ï" d="M-11 6l41 4q50 4 52 16l122 576q0 3 -1 4.5t-7.5 3t-17 3t-30.5 3.5l-28 3l-1 6h258l-4 -6l-40 -4q-51 -6 -52 -16l-122 -576q0 -5 8.5 -7.5t47.5 -6.5l28 -3l1 -6h-258zM337 676q-21 0 -32.5 14.5t-11.5 30.5q0 17 11.5 32.5t32.5 15.5q22 0 33.5 -15.5t11.5 -32.5 q0 -15 -12 -30t-33 -15zM177 676q-21 0 -33 15t-12 30q0 17 11.5 32.5t33.5 15.5q21 0 32.5 -15.5t11.5 -32.5q0 -16 -11.5 -30.5t-32.5 -14.5z"/>
<glyph glyph-name="Eth" horiz-adv-x="666" unicode="Ð" d="M46 308l5 12h83l30 141q2 12 10.5 40t14 53.5t5.5 48.5q0 4 -6.5 5.5t-49.5 7.5l-24 3l-1 6l238 1q144 0 220.5 -73.5t76.5 -189.5q0 -158 -110 -260.5t-300 -102.5h-258l3 6l37 4q51 6 52 16l60 282h-86zM366 320l1 -12h-158l-59 -280l88 -19q104 0 179 52t110.5 134.5 t35.5 183.5q0 108 -53.5 172.5t-167.5 64.5h-67l-63 -296h154z"/>
<glyph glyph-name="Ntilde" horiz-adv-x="664" unicode="Ñ" d="M207 564h-2l-111 -524q-2 -8 4 -14t23.5 -11t46.5 -7l18 -2l1 -6h-207l3 6l20 2q73 8 78 34l116 532q-23 34 -85 43l-12 2l-1 6h166l262 -504h2l98 464q2 8 -4 14t-23 11t-46 7l-18 2l-1 6h207l-4 -6l-19 -2q-73 -7 -79 -34l-128 -588h-5zM499 664q-27 0 -82 30t-74 30 q-20 0 -32.5 -10t-20.5 -42h-6q13 54 30.5 76.5t48.5 22.5q26 0 81.5 -30t74.5 -30q40 0 53 52h7q-15 -54 -32 -76.5t-48 -22.5z"/>
<glyph glyph-name="Ograve" horiz-adv-x="715" unicode="Ò" d="M354 -13q-135 0 -217 86t-82 213q0 89 43.5 169.5t125 132t180.5 51.5q133 0 215 -87.5t82 -214.5q0 -146 -102.5 -248t-244.5 -102zM348 -3q76 0 139.5 54.5t98 142t34.5 185.5q0 111 -57 180.5t-155 69.5q-79 0 -142.5 -57.5t-96.5 -145.5t-33 -183q0 -110 57 -178 t155 -68zM297 845h72l73 -187h-7z"/>
<glyph glyph-name="Oacute" horiz-adv-x="715" unicode="Ó" d="M354 -13q-135 0 -217 86t-82 213q0 89 43.5 169.5t125 132t180.5 51.5q133 0 215 -87.5t82 -214.5q0 -146 -102.5 -248t-244.5 -102zM348 -3q76 0 139.5 54.5t98 142t34.5 185.5q0 111 -57 180.5t-155 69.5q-79 0 -142.5 -57.5t-96.5 -145.5t-33 -183q0 -110 57 -178 t155 -68zM528 845h81l-217 -187h-6z"/>
<glyph glyph-name="Ocircumflex" horiz-adv-x="715" unicode="Ô" d="M354 -13q-135 0 -217 86t-82 213q0 89 43.5 169.5t125 132t180.5 51.5q133 0 215 -87.5t82 -214.5q0 -146 -102.5 -248t-244.5 -102zM348 -3q76 0 139.5 54.5t98 142t34.5 185.5q0 111 -57 180.5t-155 69.5q-79 0 -142.5 -57.5t-96.5 -145.5t-33 -183q0 -110 57 -178 t155 -68zM451 835h5l86 -188h-6l-93 113h-3l-148 -113h-5z"/>
<glyph glyph-name="Otilde" horiz-adv-x="715" unicode="Õ" d="M354 -13q-135 0 -217 86t-82 213q0 89 43.5 169.5t125 132t180.5 51.5q133 0 215 -87.5t82 -214.5q0 -146 -102.5 -248t-244.5 -102zM348 -3q76 0 139.5 54.5t98 142t34.5 185.5q0 111 -57 180.5t-155 69.5q-79 0 -142.5 -57.5t-96.5 -145.5t-33 -183q0 -110 57 -178 t155 -68zM507 664q-27 0 -82 30t-74 30q-20 0 -32.5 -10t-20.5 -42h-6q13 54 30.5 76.5t48.5 22.5q26 0 81.5 -30t74.5 -30q40 0 53 52h7q-15 -54 -32 -76.5t-48 -22.5z"/>
<glyph glyph-name="Odieresis" horiz-adv-x="715" unicode="Ö" d="M354 -13q-135 0 -217 86t-82 213q0 89 43.5 169.5t125 132t180.5 51.5q133 0 215 -87.5t82 -214.5q0 -146 -102.5 -248t-244.5 -102zM348 -3q76 0 139.5 54.5t98 142t34.5 185.5q0 111 -57 180.5t-155 69.5q-79 0 -142.5 -57.5t-96.5 -145.5t-33 -183q0 -110 57 -178 t155 -68zM519 676q-21 0 -32.5 14.5t-11.5 30.5q0 17 11.5 32.5t32.5 15.5q22 0 33.5 -15.5t11.5 -32.5q0 -15 -12 -30t-33 -15zM359 676q-21 0 -33 15t-12 30q0 17 11.5 32.5t33.5 15.5q21 0 32.5 -15.5t11.5 -32.5q0 -16 -11.5 -30.5t-32.5 -14.5z"/>
<glyph glyph-name="Oslash" horiz-adv-x="715" unicode="Ø" d="M593 575q108 -88 108 -237q0 -146 -102.5 -248.5t-244.5 -102.5q-106 0 -179 54l-90 -114h-13l95 120q-54 42 -83 104.5t-29 135.5q0 138 100 245t249 107q104 0 181 -58l85 108h13zM193 65q58 -69 155 -69q76 0 139.5 54.5t98 142.5t34.5 186q0 101 -48 169zM566 556 q-58 73 -158 73q-79 0 -142.5 -57.5t-96.5 -145t-33 -183.5q0 -102 50 -171z"/>
<glyph glyph-name="Ugrave" horiz-adv-x="661" unicode="Ù" d="M339 -15q-109 0 -174 41t-65 122q0 35 11 84l78 370q0 3 -1 4.5t-7 3.5t-17.5 3.5t-30.5 2.5l-38 3l-1 6h278l-4 -6l-50 -4q-50 -4 -52 -16l-77 -365q-9 -44 -9 -76q0 -145 185 -145q78 0 124.5 48.5t68.5 153.5l79 370q2 12 -15 20t-60 12l-18 2l-1 6h207l-4 -6l-19 -2 q-73 -8 -78 -34l-80 -372q-24 -114 -78.5 -170t-151.5 -56zM335 845h72l73 -187h-7z"/>
<glyph glyph-name="Uacute" horiz-adv-x="661" unicode="Ú" d="M339 -15q-109 0 -174 41t-65 122q0 35 11 84l78 370q0 3 -1 4.5t-7 3.5t-17.5 3.5t-30.5 2.5l-38 3l-1 6h278l-4 -6l-50 -4q-50 -4 -52 -16l-77 -365q-9 -44 -9 -76q0 -145 185 -145q78 0 124.5 48.5t68.5 153.5l79 370q2 12 -15 20t-60 12l-18 2l-1 6h207l-4 -6l-19 -2 q-73 -8 -78 -34l-80 -372q-24 -114 -78.5 -170t-151.5 -56zM541 845h81l-217 -187h-6z"/>
<glyph glyph-name="Ucircumflex" horiz-adv-x="661" unicode="Û" d="M339 -15q-109 0 -174 41t-65 122q0 35 11 84l78 370q0 3 -1 4.5t-7 3.5t-17.5 3.5t-30.5 2.5l-38 3l-1 6h278l-4 -6l-50 -4q-50 -4 -52 -16l-77 -365q-9 -44 -9 -76q0 -145 185 -145q78 0 124.5 48.5t68.5 153.5l79 370q2 12 -15 20t-60 12l-18 2l-1 6h207l-4 -6l-19 -2 q-73 -8 -78 -34l-80 -372q-24 -114 -78.5 -170t-151.5 -56zM474 835h5l86 -188h-6l-93 113h-3l-148 -113h-5z"/>
<glyph glyph-name="Udieresis" horiz-adv-x="661" unicode="Ü" d="M339 -15q-109 0 -174 41t-65 122q0 35 11 84l78 370q0 3 -1 4.5t-7 3.5t-17.5 3.5t-30.5 2.5l-38 3l-1 6h278l-4 -6l-50 -4q-50 -4 -52 -16l-77 -365q-9 -44 -9 -76q0 -145 185 -145q78 0 124.5 48.5t68.5 153.5l79 370q2 12 -15 20t-60 12l-18 2l-1 6h207l-4 -6l-19 -2 q-73 -8 -78 -34l-80 -372q-24 -114 -78.5 -170t-151.5 -56zM526 676q-21 0 -32.5 14.5t-11.5 30.5q0 17 11.5 32.5t32.5 15.5q22 0 33.5 -15.5t11.5 -32.5q0 -15 -12 -30t-33 -15zM366 676q-21 0 -33 15t-12 30q0 17 11.5 32.5t33.5 15.5q21 0 32.5 -15.5t11.5 -32.5 q0 -16 -11.5 -30.5t-32.5 -14.5z"/>
<glyph glyph-name="Yacute" d="M123 6l51 4q50 4 52 16l54 255l-93 262q-14 42 -28 57t-47 17l-27 2l-1 6h260l-4 -6l-29 -1q-28 -2 -39.5 -8.5t-11.5 -21.5q0 -11 10 -41l85 -242h2l133 179q64 88 64 107q0 12 -14 17t-48 8l-23 3l-1 6h218l-4 -6l-21 -2q-38 -2 -66.5 -26t-91.5 -107l-144 -194 l-56 -267q0 -3 1 -4.5t7 -3.5t17.5 -3.5t30.5 -2.5l38 -3l1 -6h-278zM517 845h81l-217 -187h-6z" unicode="Ý"/>
<glyph glyph-name="Thorn" horiz-adv-x="539" unicode="Þ" d="M-30 6l51 4q50 4 52 16l122 576q0 3 -1 4.5t-7 3.5t-17.5 3.5t-30.5 2.5l-38 3l-1 6h278l-4 -6l-50 -4q-50 -4 -52 -16l-23 -108h54q22 0 33 -1q95 0 149 -41.5t54 -104.5q0 -76 -64.5 -126t-167.5 -50q-55 0 -124 19l-33 -164q-1 -4 2.5 -6t16 -4.5t37.5 -3.5l48 -3 l1 -6h-288zM295 179q75 0 118 52.5t43 131.5q0 116 -128 116h-82l-59 -277q52 -23 108 -23z"/>
<glyph glyph-name="germandbls" horiz-adv-x="463" unicode="ß" d="M305 413q51 -34 91.5 -102.5t40.5 -132.5q0 -75 -47.5 -131.5t-114.5 -56.5q-42 0 -75 26t-33 58q0 26 14.5 41.5t37.5 15.5q19 0 30 -12t11 -29t-11.5 -29.5t-33.5 -12.5q-8 0 -12 1q5 -18 24.5 -34t46.5 -16q45 0 70.5 43.5t25.5 110.5q0 65 -35.5 132.5t-102.5 120.5 v4q75 2 116 41.5t41 106.5q0 94 -69 94q-50 0 -73.5 -46t-53.5 -181l-66 -291q-50 -214 -115 -279q-35 -35 -91 -35q-35 0 -55 15t-20 39q0 18 12.5 31t30.5 13q15 0 27.5 -12.5t12.5 -29.5q0 -19 -15 -35q21 -9 30 -9q25 0 42.5 21.5t37.5 87.5t45 195l51 256l-78 2l12 30 l76 1q30 121 77 179t116 58q62 0 96.5 -32t34.5 -84q0 -54 -41.5 -88.5t-107.5 -44.5z"/>
<glyph glyph-name="agrave" horiz-adv-x="426" unicode="à" d="M277 -12q-15 0 -36.5 18t-21.5 33q0 28 44 142h-2q-65 -108 -99.5 -150t-70.5 -42q-34 0 -57.5 26t-23.5 67q0 74 47 155t107 141q52 54 103 54q24 0 35.5 -21t11.5 -74h2l34 101l64 -4l-78 -215l-60 -187l50 -6l69 110l6 -3q-71 -145 -124 -145zM125 38q53 0 150 195 q26 54 26 83t-21.5 53.5t-53.5 24.5q-27 0 -51 -24q-36 -36 -66.5 -117t-30.5 -142q0 -36 13.5 -54.5t33.5 -18.5zM145 678h72l73 -187h-7z"/>
<glyph glyph-name="aacute" horiz-adv-x="426" unicode="á" d="M277 -12q-15 0 -36.5 18t-21.5 33q0 28 44 142h-2q-65 -108 -99.5 -150t-70.5 -42q-34 0 -57.5 26t-23.5 67q0 74 47 155t107 141q52 54 103 54q24 0 35.5 -21t11.5 -74h2l34 101l64 -4l-78 -215l-60 -187l50 -6l69 110l6 -3q-71 -145 -124 -145zM125 38q53 0 150 195 q26 54 26 83t-21.5 53.5t-53.5 24.5q-27 0 -51 -24q-36 -36 -66.5 -117t-30.5 -142q0 -36 13.5 -54.5t33.5 -18.5zM375 678h81l-217 -187h-6z"/>
<glyph glyph-name="acircumflex" horiz-adv-x="426" unicode="â" d="M277 -12q-15 0 -36.5 18t-21.5 33q0 28 44 142h-2q-65 -108 -99.5 -150t-70.5 -42q-34 0 -57.5 26t-23.5 67q0 74 47 155t107 141q52 54 103 54q24 0 35.5 -21t11.5 -74h2l34 101l64 -4l-78 -215l-60 -187l50 -6l69 110l6 -3q-71 -145 -124 -145zM125 38q53 0 150 195 q26 54 26 83t-21.5 53.5t-53.5 24.5q-27 0 -51 -24q-36 -36 -66.5 -117t-30.5 -142q0 -36 13.5 -54.5t33.5 -18.5zM298 668h5l86 -188h-6l-93 113h-3l-148 -113h-5z"/>
<glyph glyph-name="atilde" horiz-adv-x="426" unicode="ã" d="M277 -12q-15 0 -36.5 18t-21.5 33q0 28 44 142h-2q-65 -108 -99.5 -150t-70.5 -42q-34 0 -57.5 26t-23.5 67q0 74 47 155t107 141q52 54 103 54q24 0 35.5 -21t11.5 -74h2l34 101l64 -4l-78 -215l-60 -187l50 -6l69 110l6 -3q-71 -145 -124 -145zM125 38q53 0 150 195 q26 54 26 83t-21.5 53.5t-53.5 24.5q-27 0 -51 -24q-36 -36 -66.5 -117t-30.5 -142q0 -36 13.5 -54.5t33.5 -18.5zM344 497q-27 0 -82 30t-74 30q-20 0 -32.5 -10t-20.5 -42h-6q13 54 30.5 76.5t48.5 22.5q26 0 81.5 -30t74.5 -30q40 0 53 52h7q-15 -54 -32 -76.5t-48 -22.5 z"/>
<glyph glyph-name="adieresis" horiz-adv-x="426" unicode="ä" d="M277 -12q-15 0 -36.5 18t-21.5 33q0 28 44 142h-2q-65 -108 -99.5 -150t-70.5 -42q-34 0 -57.5 26t-23.5 67q0 74 47 155t107 141q52 54 103 54q24 0 35.5 -21t11.5 -74h2l34 101l64 -4l-78 -215l-60 -187l50 -6l69 110l6 -3q-71 -145 -124 -145zM125 38q53 0 150 195 q26 54 26 83t-21.5 53.5t-53.5 24.5q-27 0 -51 -24q-36 -36 -66.5 -117t-30.5 -142q0 -36 13.5 -54.5t33.5 -18.5zM356 509q-21 0 -32.5 14.5t-11.5 30.5q0 17 11.5 32.5t32.5 15.5q22 0 33.5 -15.5t11.5 -32.5q0 -15 -12 -30t-33 -15zM196 509q-21 0 -33 15t-12 30 q0 17 11.5 32.5t33.5 15.5q21 0 32.5 -15.5t11.5 -32.5q0 -16 -11.5 -30.5t-32.5 -14.5z"/>
<glyph glyph-name="aring" horiz-adv-x="426" unicode="å" d="M277 -12q-15 0 -36.5 18t-21.5 33q0 28 44 142h-2q-65 -108 -99.5 -150t-70.5 -42q-34 0 -57.5 26t-23.5 67q0 74 47 155t107 141q52 54 103 54q24 0 35.5 -21t11.5 -74h2l34 101l64 -4l-78 -215l-60 -187l50 -6l69 110l6 -3q-71 -145 -124 -145zM125 38q53 0 150 195 q26 54 26 83t-21.5 53.5t-53.5 24.5q-27 0 -51 -24q-36 -36 -66.5 -117t-30.5 -142q0 -36 13.5 -54.5t33.5 -18.5zM285 498q-41 0 -65 26t-24 64t24 64t65 26t65 -26t24 -64t-24 -64t-65 -26zM285 507q36 0 57.5 23.5t21.5 57.5t-21.5 57.5t-57.5 23.5t-57.5 -23.5 t-21.5 -57.5t21.5 -57.5t57.5 -23.5z"/>
<glyph glyph-name="ae" horiz-adv-x="584" unicode="æ" d="M91 -12q-34 0 -57.5 26t-23.5 67q0 74 47 155t107 141q58 58 102 58q57 0 57 -111q79 114 173 114q43 0 70.5 -19t27.5 -51q0 -48 -62 -79.5t-191 -52.5q-14 -48 -14 -92q0 -111 80 -111q37 0 66.5 23.5t65.5 81.5l7 -3q-83 -146 -171 -146q-53 0 -85.5 40t-32.5 97 q0 36 4 53q-66 -107 -100.5 -149t-69.5 -42zM125 37q53 0 150 196q26 54 26 83t-21.5 53.5t-53.5 24.5q-26 0 -51 -25q-37 -39 -67 -118t-30 -140q0 -36 13.5 -55t33.5 -19zM346 245q102 18 142.5 47t40.5 82t-43 53q-25 0 -62 -34q-48 -48 -80 -147z"/>
<glyph glyph-name="ccedilla" horiz-adv-x="331" unicode="ç" d="M119 -12q-50 5 -79 44t-29 94q0 71 36 144t94 120.5t117 47.5q37 0 65 -21t28 -50q0 -21 -12.5 -35t-30.5 -14q-16 0 -29 11t-13 26q0 28 35 47l-6.5 6.5t-8 7.5t-8 5.5t-11.5 4.5t-13 1q-39 0 -77 -38q-39 -41 -67.5 -111.5t-28.5 -133.5q0 -112 77 -112q38 0 65.5 23 t65.5 83l7 -3q-84 -147 -166 -147l-63 -58q8 1 22 1q47 0 75 -19t28 -49q0 -54 -61 -81t-153 -27l-1 5q165 7 165 84q0 47 -78 47q-18 0 -55 -7l2 7z"/>
<glyph glyph-name="egrave" horiz-adv-x="339" unicode="è" d="M129 -12q-53 0 -85.5 41t-32.5 97q0 72 35.5 145t92 120t112.5 47q43 0 70 -19t27 -51q0 -48 -61.5 -79.5t-190.5 -52.5q-15 -52 -15 -92q0 -112 81 -112q37 0 66 23.5t65 82.5l7 -3q-84 -147 -171 -147zM101 245q102 18 142.5 47t40.5 82t-43 53q-26 0 -63 -34 q-47 -47 -79 -147zM125 678h72l73 -187h-7z"/>
<glyph glyph-name="eacute" horiz-adv-x="339" unicode="é" d="M129 -12q-53 0 -85.5 41t-32.5 97q0 72 35.5 145t92 120t112.5 47q43 0 70 -19t27 -51q0 -48 -61.5 -79.5t-190.5 -52.5q-15 -52 -15 -92q0 -112 81 -112q37 0 66 23.5t65 82.5l7 -3q-84 -147 -171 -147zM101 245q102 18 142.5 47t40.5 82t-43 53q-26 0 -63 -34 q-47 -47 -79 -147zM353 678h81l-217 -187h-6z"/>
<glyph glyph-name="ecircumflex" horiz-adv-x="339" unicode="ê" d="M129 -12q-53 0 -85.5 41t-32.5 97q0 72 35.5 145t92 120t112.5 47q43 0 70 -19t27 -51q0 -48 -61.5 -79.5t-190.5 -52.5q-15 -52 -15 -92q0 -112 81 -112q37 0 66 23.5t65 82.5l7 -3q-84 -147 -171 -147zM101 245q102 18 142.5 47t40.5 82t-43 53q-26 0 -63 -34 q-47 -47 -79 -147zM277 668h5l86 -188h-6l-93 113h-3l-148 -113h-5z"/>
<glyph glyph-name="edieresis" horiz-adv-x="339" unicode="ë" d="M129 -12q-53 0 -85.5 41t-32.5 97q0 72 35.5 145t92 120t112.5 47q43 0 70 -19t27 -51q0 -48 -61.5 -79.5t-190.5 -52.5q-15 -52 -15 -92q0 -112 81 -112q37 0 66 23.5t65 82.5l7 -3q-84 -147 -171 -147zM101 245q102 18 142.5 47t40.5 82t-43 53q-26 0 -63 -34 q-47 -47 -79 -147zM325 509q-21 0 -32.5 14.5t-11.5 30.5q0 17 11.5 32.5t32.5 15.5q22 0 33.5 -15.5t11.5 -32.5q0 -15 -12 -30t-33 -15zM165 509q-21 0 -33 15t-12 30q0 17 11.5 32.5t33.5 15.5q21 0 32.5 -15.5t11.5 -32.5q0 -16 -11.5 -30.5t-32.5 -14.5z"/>
<glyph glyph-name="igrave" horiz-adv-x="235" unicode="ì" d="M88 -12q-16 0 -43.5 13t-27.5 22q0 7 32.5 90.5t68 174t40.5 106.5l-57 5l-68 -108l-6 3q71 144 136 144q18 0 32 -21t14 -45q0 -8 -11.5 -42t-30.5 -81t-35.5 -88t-34 -82.5t-18.5 -45.5l56 -7l70 109l6 -3q-36 -73 -68.5 -108.5t-54.5 -35.5zM70 678h72l73 -187h-7z "/>
<glyph glyph-name="iacute" horiz-adv-x="235" unicode="í" d="M88 -12q-16 0 -43.5 13t-27.5 22q0 7 32.5 90.5t68 174t40.5 106.5l-57 5l-68 -108l-6 3q71 144 136 144q18 0 32 -21t14 -45q0 -8 -11.5 -42t-30.5 -81t-35.5 -88t-34 -82.5t-18.5 -45.5l56 -7l70 109l6 -3q-36 -73 -68.5 -108.5t-54.5 -35.5zM301 678h81l-217 -187h-6z "/>
<glyph glyph-name="icircumflex" horiz-adv-x="235" unicode="î" d="M88 -12q-16 0 -43.5 13t-27.5 22q0 7 32.5 90.5t68 174t40.5 106.5l-57 5l-68 -108l-6 3q71 144 136 144q18 0 32 -21t14 -45q0 -8 -11.5 -42t-30.5 -81t-35.5 -88t-34 -82.5t-18.5 -45.5l56 -7l70 109l6 -3q-36 -73 -68.5 -108.5t-54.5 -35.5zM211 668h5l77 -185h-7 l-86 111h-3l-135 -111h-5z"/>
<glyph glyph-name="idieresis" horiz-adv-x="235" unicode="ï" d="M88 -12q-16 0 -43.5 13t-27.5 22q0 7 32.5 90.5t68 174t40.5 106.5l-57 5l-68 -108l-6 3q71 144 136 144q18 0 32 -21t14 -45q0 -8 -11.5 -42t-30.5 -81t-35.5 -88t-34 -82.5t-18.5 -45.5l56 -7l70 109l6 -3q-36 -73 -68.5 -108.5t-54.5 -35.5zM287 509q-21 0 -32.5 14.5 t-11.5 30.5q0 17 11.5 32.5t32.5 15.5q22 0 33.5 -15.5t11.5 -32.5q0 -15 -12 -30t-33 -15zM127 509q-21 0 -33 15t-12 30q0 17 11.5 32.5t33.5 15.5q21 0 32.5 -15.5t11.5 -32.5q0 -16 -11.5 -30.5t-32.5 -14.5z"/>
<glyph glyph-name="eth" horiz-adv-x="379" unicode="ð" d="M200 556q-2 0 -58 -18q-32 -9 -59 -18l3 11l106 34q-37 43 -90 70l3 8q71 -25 122 -67l119 38l1 -12l-110 -34q61 -53 92 -127t31 -155q0 -113 -68.5 -205t-150.5 -92q-57 0 -89.5 50t-32.5 120q0 94 68.5 185t140.5 91q30 0 49 -13q-13 37 -36.5 85.5t-40.5 48.5zM129 0 q43 0 84 49.5t64 124.5q20 62 20 142q0 107 -54 107q-37 0 -77.5 -59.5t-66.5 -139.5q-21 -65 -21 -125q0 -46 14 -72.5t37 -26.5z"/>
<glyph glyph-name="ntilde" horiz-adv-x="453" unicode="ñ" d="M310 -12q-16 0 -43 14.5t-27 23.5q0 5 10.5 32.5t31.5 79.5t32 81q6 17 21.5 55t23 59t7.5 29q0 14 -13.5 24.5t-30.5 10.5q-24 0 -84.5 -86t-122.5 -219l-36 -95l-66 5l57 165l69 229l-47 4l-68 -109l-6 3q71 145 131 145q15 0 30.5 -21.5t15.5 -44.5q0 -21 -21 -87.5 t-51 -138.5l4 -2q40 79 89.5 154.5t76.5 102.5q35 35 71 35q23 0 44.5 -18.5t21.5 -41.5q0 -30 -52 -158q-6 -14 -22 -55t-24 -61l-15 -36t-14 -35l50 -6l71 110l6 -3q-71 -145 -120 -145zM361 497q-27 0 -82 30t-74 30q-20 0 -32.5 -10t-20.5 -42h-6q13 54 30.5 76.5 t48.5 22.5q26 0 81.5 -30t74.5 -30q40 0 53 52h7q-15 -54 -32 -76.5t-48 -22.5z"/>
<glyph glyph-name="ograve" horiz-adv-x="376" unicode="ò" d="M141 -11q-57 0 -89.5 50t-32.5 120q0 95 68.5 186t140.5 91q56 0 93 -50t37 -126q0 -98 -69.5 -184.5t-147.5 -86.5zM129 0q43 0 83 49.5t63 124.5q20 62 20 142q0 108 -52 108q-37 0 -77.5 -60t-66.5 -140q-21 -65 -21 -125q0 -46 14 -72.5t37 -26.5zM139 678h72 l73 -187h-7z"/>
<glyph glyph-name="oacute" horiz-adv-x="376" unicode="ó" d="M141 -11q-57 0 -89.5 50t-32.5 120q0 95 68.5 186t140.5 91q56 0 93 -50t37 -126q0 -98 -69.5 -184.5t-147.5 -86.5zM129 0q43 0 83 49.5t63 124.5q20 62 20 142q0 108 -52 108q-37 0 -77.5 -60t-66.5 -140q-21 -65 -21 -125q0 -46 14 -72.5t37 -26.5zM364 678h81 l-217 -187h-6z"/>
<glyph glyph-name="ocircumflex" horiz-adv-x="376" unicode="ô" d="M141 -11q-57 0 -89.5 50t-32.5 120q0 95 68.5 186t140.5 91q56 0 93 -50t37 -126q0 -98 -69.5 -184.5t-147.5 -86.5zM129 0q43 0 83 49.5t63 124.5q20 62 20 142q0 108 -52 108q-37 0 -77.5 -60t-66.5 -140q-21 -65 -21 -125q0 -46 14 -72.5t37 -26.5zM287 668h5l86 -188 h-6l-93 113h-3l-148 -113h-5z"/>
<glyph glyph-name="otilde" horiz-adv-x="376" unicode="õ" d="M141 -11q-57 0 -89.5 50t-32.5 120q0 95 68.5 186t140.5 91q56 0 93 -50t37 -126q0 -98 -69.5 -184.5t-147.5 -86.5zM129 0q43 0 83 49.5t63 124.5q20 62 20 142q0 108 -52 108q-37 0 -77.5 -60t-66.5 -140q-21 -65 -21 -125q0 -46 14 -72.5t37 -26.5zM333 497 q-27 0 -82 30t-74 30q-20 0 -32.5 -10t-20.5 -42h-6q13 54 30.5 76.5t48.5 22.5q26 0 81.5 -30t74.5 -30q40 0 53 52h7q-15 -54 -32 -76.5t-48 -22.5z"/>
<glyph glyph-name="odieresis" horiz-adv-x="376" unicode="ö" d="M141 -11q-57 0 -89.5 50t-32.5 120q0 95 68.5 186t140.5 91q56 0 93 -50t37 -126q0 -98 -69.5 -184.5t-147.5 -86.5zM129 0q43 0 83 49.5t63 124.5q20 62 20 142q0 108 -52 108q-37 0 -77.5 -60t-66.5 -140q-21 -65 -21 -125q0 -46 14 -72.5t37 -26.5zM345 509 q-21 0 -32.5 14.5t-11.5 30.5q0 17 11.5 32.5t32.5 15.5q22 0 33.5 -15.5t11.5 -32.5q0 -15 -12 -30t-33 -15zM185 509q-21 0 -33 15t-12 30q0 17 11.5 32.5t33.5 15.5q21 0 32.5 -15.5t11.5 -32.5q0 -16 -11.5 -30.5t-32.5 -14.5z"/>
<glyph glyph-name="divide" horiz-adv-x="544" unicode="÷" d="M256 -12q-101 0 -163 60.5t-62 153.5q0 115 78 198.5t188 83.5q101 0 163 -61.5t62 -155.5q0 -115 -77.5 -197t-188.5 -82zM256 -4q107 0 181.5 79.5t74.5 191.5q0 89 -59 149t-156 60q-106 0 -181 -81t-75 -193q0 -88 60 -147t155 -59z"/>
<glyph glyph-name="oslash" horiz-adv-x="376" unicode="ø" d="M327 376q31 -51 31 -116q0 -98 -69.5 -184.5t-147.5 -86.5q-53 0 -84 42l-125 -159h-13l66 84q14 18 30.5 39t26.5 33l9 11q0 15 -16 55t-16 64q0 62 31.5 127t81 107.5t96.5 42.5q56 0 93 -50l148 188h13zM81 62q11 -62 48 -62q43 0 83.5 49.5t62.5 123.5q20 66 20 143 q0 11 -1 18zM293 349q-6 74 -50 74q-37 0 -77.5 -59.5t-66.5 -139.5q-21 -65 -21 -125q0 -16 1 -23z"/>
<glyph glyph-name="ugrave" horiz-adv-x="453" unicode="ù" d="M304 -13q-15 0 -30 21.5t-15 44.5t20 89t51 138l-4 2q-41 -80 -89.5 -155.5t-75.5 -102.5q-35 -35 -71 -35q-23 0 -44.5 18.5t-21.5 41.5q0 30 52 158q24 62 46 117q2 6 12.5 31.5t15.5 39.5l-51 5l-69 -110l-6 3q71 145 120 145q16 0 43 -14.5t27 -23.5 q0 -5 -10.5 -32.5t-31.5 -79.5t-32 -81q-52 -136 -52 -143q0 -14 13.5 -24.5t30.5 -10.5q24 0 84.5 85.5t122.5 218.5l36 96l65 -5l-57 -165l-70 -228l47 -5l69 109l6 -3q-68 -145 -131 -145zM172 678h72l73 -187h-7z"/>
<glyph glyph-name="uacute" horiz-adv-x="453" unicode="ú" d="M304 -13q-15 0 -30 21.5t-15 44.5t20 89t51 138l-4 2q-41 -80 -89.5 -155.5t-75.5 -102.5q-35 -35 -71 -35q-23 0 -44.5 18.5t-21.5 41.5q0 30 52 158q24 62 46 117q2 6 12.5 31.5t15.5 39.5l-51 5l-69 -110l-6 3q71 145 120 145q16 0 43 -14.5t27 -23.5 q0 -5 -10.5 -32.5t-31.5 -79.5t-32 -81q-52 -136 -52 -143q0 -14 13.5 -24.5t30.5 -10.5q24 0 84.5 85.5t122.5 218.5l36 96l65 -5l-57 -165l-70 -228l47 -5l69 109l6 -3q-68 -145 -131 -145zM399 678h81l-217 -187h-6z"/>
<glyph glyph-name="ucircumflex" horiz-adv-x="453" unicode="û" d="M304 -13q-15 0 -30 21.5t-15 44.5t20 89t51 138l-4 2q-41 -80 -89.5 -155.5t-75.5 -102.5q-35 -35 -71 -35q-23 0 -44.5 18.5t-21.5 41.5q0 30 52 158q24 62 46 117q2 6 12.5 31.5t15.5 39.5l-51 5l-69 -110l-6 3q71 145 120 145q16 0 43 -14.5t27 -23.5 q0 -5 -10.5 -32.5t-31.5 -79.5t-32 -81q-52 -136 -52 -143q0 -14 13.5 -24.5t30.5 -10.5q24 0 84.5 85.5t122.5 218.5l36 96l65 -5l-57 -165l-70 -228l47 -5l69 109l6 -3q-68 -145 -131 -145zM332 668h5l86 -188h-6l-93 113h-3l-148 -113h-5z"/>
<glyph glyph-name="udieresis" horiz-adv-x="453" unicode="ü" d="M304 -13q-15 0 -30 21.5t-15 44.5t20 89t51 138l-4 2q-41 -80 -89.5 -155.5t-75.5 -102.5q-35 -35 -71 -35q-23 0 -44.5 18.5t-21.5 41.5q0 30 52 158q24 62 46 117q2 6 12.5 31.5t15.5 39.5l-51 5l-69 -110l-6 3q71 145 120 145q16 0 43 -14.5t27 -23.5 q0 -5 -10.5 -32.5t-31.5 -79.5t-32 -81q-52 -136 -52 -143q0 -14 13.5 -24.5t30.5 -10.5q24 0 84.5 85.5t122.5 218.5l36 96l65 -5l-57 -165l-70 -228l47 -5l69 109l6 -3q-68 -145 -131 -145zM390 509q-21 0 -32.5 14.5t-11.5 30.5q0 17 11.5 32.5t32.5 15.5 q22 0 33.5 -15.5t11.5 -32.5q0 -15 -12 -30t-33 -15zM230 509q-21 0 -33 15t-12 30q0 17 11.5 32.5t33.5 15.5q21 0 32.5 -15.5t11.5 -32.5q0 -16 -11.5 -30.5t-32.5 -14.5z"/>
<glyph glyph-name="yacute" horiz-adv-x="411" unicode="ý" d="M-27 -182q-83 0 -83 56q0 19 12.5 31.5t31.5 12.5q18 0 29 -11.5t11 -29.5q0 -19 -11 -35q9 -4 16 -5q15 -5 22 -5q101 15 204 146q-8 222 -33 323t-69 101h-18l-60 -111l-7 3q47 99 64 119q22 26 53 26q61 0 90 -86t35 -300q0 2 2 0q103 190 102 332q-17 -16 -36 -16 q-17 0 -28.5 11t-11.5 24v5q0 16 11.5 26.5t29.5 10.5q22 0 36 -17t14 -50q0 -106 -61.5 -239.5t-151.5 -223.5q-98 -98 -193 -98zM381 678h81l-217 -187h-6z"/>
<glyph glyph-name="thorn" horiz-adv-x="401" unicode="þ" d="M-138 -247l19 1q3 0 9.5 1t9.5 1.5t7.5 1t7 1.5l5 2t3.5 3l2 4l253 845q6 23 -5 23l-80 3l2 6l166 17l-20 -64q-42 -136 -85 -265t-45 -134q-3 -9 -1.5 -9.5t5.5 6.5q57 132 102.5 186.5t86.5 54.5q38 0 60.5 -34t22.5 -88q0 -75 -34 -151t-91 -126t-117 -50 q-49 0 -71 61h-2l-84 -283q-2 -5 8 -8q12 -3 48 -4l31 -1l1 -6h-217zM145 -3q30 0 65 35q45 45 77 126t32 147q0 84 -50 84q-67 0 -155 -220q-31 -77 -31 -102q0 -23 18.5 -46.5t43.5 -23.5z"/>
<glyph glyph-name="dotlessi" horiz-adv-x="235" unicode="ı" d="M88 -12q-16 0 -43.5 13t-27.5 22q0 7 32.5 90.5t68 174t40.5 106.5l-57 5l-68 -108l-6 3q71 144 136 144q18 0 32 -21t14 -45q0 -8 -11.5 -42t-30.5 -81t-35.5 -88t-34 -82.5t-18.5 -45.5l56 -7l70 109l6 -3q-36 -73 -68.5 -108.5t-54.5 -35.5z"/>
<glyph glyph-name="OE" horiz-adv-x="919" unicode="Œ" d="M340 0q-138 0 -212 74t-74 187q0 27 2 41q15 146 123 234.5t283 88.5h426l14 -177l-5 -1l-5 14q-15 45 -26 69t-29 46t-43.5 30.5t-63.5 8.5h-99l-59 -283l66 1q67 2 91.5 16.5t46.5 63.5l7 14h3q2 0 3 -1l-43 -202l-6 1l2 13q2 18 2 24q0 36 -22.5 46.5t-91.5 12.5 l-61 2l-65 -308l141 -5q43 1 77.5 13.5t62 38t46.5 50t44 63.5l9 14l6 -1l-79 -188h-471zM424 11l125 587l-87 18q-139 0 -222 -88.5t-98 -232.5q-3 -25 -3 -50q0 -105 52.5 -170t165.5 -65z"/>
<glyph glyph-name="oe" horiz-adv-x="600" unicode="œ" d="M141 -11q-57 0 -89.5 50t-32.5 120q0 95 68.5 186t140.5 91q86 0 117 -108q35 50 79 80t88 30q43 0 70.5 -19t27.5 -51q0 -48 -62 -79.5t-191 -52.5q-14 -48 -14 -92q0 -112 80 -112q37 0 66 23.5t66 82.5l7 -3q-83 -146 -171 -146q-79 0 -106 85q-67 -85 -144 -85z M129 0q43 0 83 49.5t63 124.5q20 62 20 142q0 108 -52 108q-37 0 -77.5 -60t-66.5 -140q-21 -65 -21 -125q0 -46 14 -72.5t37 -26.5zM362 245q102 18 142.5 47t40.5 82t-43 53q-25 0 -62 -34q-48 -48 -80 -147z"/>
<glyph glyph-name="Scaron" horiz-adv-x="479" unicode="Š" d="M216 -13q-60 0 -116.5 18t-91.5 42l23 141h4l10 -51q14 -68 58.5 -104.5t110.5 -36.5q69 0 113 41.5t44 106.5q0 47 -29 80.5t-98 75.5q-66 39 -100.5 78.5t-34.5 95.5q0 69 52 117.5t137 48.5q72 0 142 -38l42 8l-27 -156l-3 1l-38 129q-42 47 -110 47q-60 0 -96.5 -34 t-36.5 -88q0 -44 25.5 -73.5t95.5 -71.5q72 -43 109 -85t37 -99q0 -79 -60.5 -136t-161.5 -57zM232 845h6l94 -113h3l147 113h5l-164 -188h-5z"/>
<glyph glyph-name="scaron" horiz-adv-x="301" unicode="š" d="M113 -12q-50 0 -86 24t-36 62q0 20 12.5 33.5t29.5 13.5q15 0 25.5 -11.5t10.5 -26.5q0 -14 -10 -29t-22 -20q13 -14 37.5 -25.5t47.5 -11.5q42 0 62.5 28.5t20.5 61.5q0 9 -2 17.5t-7 17.5t-8.5 14.5t-12.5 15t-12 13t-14.5 14.5t-13.5 13q-28 28 -40.5 42.5t-24.5 37 t-12 45.5q0 50 42.5 85t92.5 35q47 0 75.5 -19.5t29.5 -59.5q0 -21 -12.5 -33t-29.5 -12q-16 0 -26 11t-10 28q0 14 9.5 27t22.5 18q-30 30 -62 30q-39 0 -59 -26t-20 -58q0 -17 11.5 -36t20.5 -29t32 -33l15 -15l17 -17t15 -16.5t15 -19.5t11 -19t8.5 -22t2.5 -23 q0 -51 -46 -88t-100 -37zM137 668h6l94 -113h3l147 113h5l-164 -188h-5z"/>
<glyph glyph-name="Ydieresis" d="M123 6l51 4q50 4 52 16l54 255l-93 262q-14 42 -28 57t-47 17l-27 2l-1 6h260l-4 -6l-29 -1q-28 -2 -39.5 -8.5t-11.5 -21.5q0 -11 10 -41l85 -242h2l133 179q64 88 64 107q0 12 -14 17t-48 8l-23 3l-1 6h218l-4 -6l-21 -2q-38 -2 -66.5 -26t-91.5 -107l-144 -194 l-56 -267q0 -3 1 -4.5t7 -3.5t17.5 -3.5t30.5 -2.5l38 -3l1 -6h-278zM478 676q-21 0 -32.5 14.5t-11.5 30.5q0 17 11.5 32.5t32.5 15.5q22 0 33.5 -15.5t11.5 -32.5q0 -15 -12 -30t-33 -15zM318 676q-21 0 -33 15t-12 30q0 17 11.5 32.5t33.5 15.5q21 0 32.5 -15.5 t11.5 -32.5q0 -16 -11.5 -30.5t-32.5 -14.5z" unicode="Ÿ"/>
<glyph glyph-name="circumflex" horiz-adv-x="370" unicode="ˆ" d="M279 668h5l86 -188h-6l-93 113h-3l-148 -113h-5z"/>
<glyph glyph-name="caron" horiz-adv-x="370" unicode="ˇ" d="M153 668h6l94 -113h3l147 113h5l-164 -188h-5z"/>
<glyph glyph-name="ring" horiz-adv-x="370" unicode="˚" d="M266 498q-41 0 -65 26t-24 64t24 64t65 26t65 -26t24 -64t-24 -64t-65 -26zM266 507q36 0 57.5 23.5t21.5 57.5t-21.5 57.5t-57.5 23.5t-57.5 -23.5t-21.5 -57.5t21.5 -57.5t57.5 -23.5z"/>
<glyph glyph-name="tilde" horiz-adv-x="370" unicode="˜" d="M325 497q-27 0 -82 30t-74 30q-20 0 -32.5 -10t-20.5 -42h-6q13 54 30.5 76.5t48.5 22.5q26 0 81.5 -30t74.5 -30q40 0 53 52h7q-15 -54 -32 -76.5t-48 -22.5z"/>
<glyph glyph-name="pi" horiz-adv-x="704" unicode="π" d="M364 -14q-136 0 -231.5 95.5t-95.5 231.5q0 135 96 231.5t231 96.5t231 -96.5t96 -231.5q0 -136 -95.5 -231.5t-231.5 -95.5zM364 -5q131 0 224 93.5t93 224.5q0 132 -93 225.5t-224 93.5t-224 -93.5t-93 -225.5q0 -131 93 -224.5t224 -93.5zM226 123l30 3q29 3 29 10 v342q0 7 -35 10l-23 2l-2 4h167q67 0 101.5 -25t34.5 -69q0 -46 -39.5 -75.5t-102.5 -29.5q-32 0 -52 5v-166q0 -6 34 -9l30 -2l2 -4h-175zM386 301q43 0 67 24.5t24 68.5q0 47 -23.5 70t-77.5 23h-42v-178q32 -8 52 -8z"/>
<glyph glyph-name="endash" horiz-adv-x="425" unicode="–" d="M17 254h412l-10 -30h-412z"/>
<glyph glyph-name="emdash" horiz-adv-x="896" unicode="—" d="M17 254h883l-10 -30h-883z"/>
<glyph glyph-name="quoteleft" horiz-adv-x="167" unicode="‘" d="M147 429q-27 0 -45 19t-18 48q0 47 42 86t107 58l2 -4q-44 -17 -73.5 -46t-29.5 -63q0 -24 20 -37t41 -13h6q1 -17 -13.5 -32.5t-38.5 -15.5z"/>
<glyph glyph-name="quotesinglbase" horiz-adv-x="166" unicode="‚" d="M-47 -98q46 17 75.5 45t29.5 64q0 28 -23 39.5t-46 11.5q0 17 15 33t39 16q27 0 44.5 -19.5t17.5 -49.5q0 -46 -43 -87t-107 -57z"/>
<glyph glyph-name="quotedblleft" horiz-adv-x="322" unicode="“" d="M302 429q-27 0 -45 19t-18 48q0 47 42 86t107 58l2 -4q-44 -17 -73.5 -46t-29.5 -63q0 -24 20 -37t41 -13h6q1 -17 -13.5 -32.5t-38.5 -15.5zM147 429q-27 0 -45 19t-18 48q0 47 42 86t107 58l2 -4q-44 -17 -73.5 -46t-29.5 -63q0 -24 20 -37t41 -13h6q1 -17 -13.5 -32.5 t-38.5 -15.5z"/>
<glyph glyph-name="quotedblright" horiz-adv-x="321" unicode="”" d="M68 437q45 18 74.5 46t29.5 62q0 28 -22.5 39.5t-45.5 11.5q0 17 14.5 33t38.5 16q27 0 44.5 -19.5t17.5 -49.5q0 -46 -43 -86.5t-106 -56.5zM224 437q44 17 73.5 45.5t29.5 62.5q0 28 -22.5 39.5t-45.5 11.5q0 17 14.5 33t38.5 16q27 0 44.5 -19.5t17.5 -49.5 q0 -46 -42 -86.5t-106 -56.5z"/>
<glyph glyph-name="dagger" horiz-adv-x="433" unicode="†" d="M253 414h-202l1 10h203l43 201h11l-43 -201h203l-3 -10h-202l-121 -570h-11z"/>
<glyph glyph-name="daggerdbl" horiz-adv-x="433" unicode="‡" d="M173 36h-203l3 10h202l80 376h-202l1 10h203l41 193h11l-41 -193h203l-3 -10h-202l-80 -376h202l-1 -10h-203l-41 -192h-11z"/>
<glyph glyph-name="ellipsis" horiz-adv-x="554" unicode="…" d="M51 -13q-23 0 -38 15.5t-15 37.5q0 21 15 35.5t38 14.5q21 0 36 -15t15 -35q0 -21 -15 -37t-36 -16zM430 -13q-23 0 -38 15.5t-15 37.5q0 21 15 35.5t38 14.5q22 0 36.5 -15t14.5 -35q0 -21 -15 -37t-36 -16zM240 -13q-21 0 -36.5 16t-15.5 37q0 20 15 35t37 15 q23 0 37 -14.5t14 -35.5q0 -22 -14 -37.5t-37 -15.5z"/>
<glyph glyph-name="perthousand" horiz-adv-x="837" unicode="‰" d="M580 640h13l-584 -654h-13zM684 -13q-56 0 -90 36.5t-34 88.5q0 54 34 91.5t90 37.5q57 0 91 -37.5t34 -91.5q0 -52 -34 -88.5t-91 -36.5zM684 -3q51 0 82 33t31 83q0 49 -31.5 83.5t-81.5 34.5t-81 -34.5t-31 -83.5q0 -50 30.5 -83t81.5 -33zM397 -13q-56 0 -90 36.5 t-34 88.5q0 54 34 91.5t90 37.5q57 0 91 -37.5t34 -91.5q0 -52 -34 -88.5t-91 -36.5zM397 -3q51 0 82 33t31 83q0 49 -31.5 83.5t-81.5 34.5t-81 -34.5t-31 -83.5q0 -50 30.5 -83t81.5 -33zM194 386q-56 0 -90 36.5t-34 89.5t34 90.5t90 37.5q57 0 91 -37.5t34 -90.5 t-34 -89.5t-91 -36.5zM194 396q51 0 82 33t31 83q0 49 -31.5 83.5t-81.5 34.5t-81 -34.5t-31 -83.5q0 -50 30.5 -83t81.5 -33z"/>
<glyph glyph-name="guilsinglleft" horiz-adv-x="233" unicode="‹" d="M12 221l2 7l237 167l3 -4l-166 -175l94 -162l-4 -5z"/>
<glyph glyph-name="guilsinglright" horiz-adv-x="234" unicode="›" d="M-15 53l165 174l-95 162l5 5l165 -172l-1 -7l-237 -166z"/>
<glyph glyph-name="fraction" horiz-adv-x="459" unicode="⁄" d="M546 641h15l-606 -654h-14z"/>
<glyph glyph-name="Euro" horiz-adv-x="478" unicode="€" d="M264 -14q-88 0 -139.5 69t-55.5 168h-67l3 10h64q0 18 6 52q2 35 9 68h-55l3 10h56q38 120 124.5 196.5t179.5 76.5q63 0 100.5 -26t37.5 -59q0 -18 -13 -32.5t-32 -14.5q-38 0 -38 40q0 26 17 43q-13 39 -70 39q-77 0 -140.5 -73t-91.5 -190h199l3 -10h-205 q-6 -27 -6 -55q-6 -32 -6 -65h187l2 -10h-188q4 -86 46 -140.5t115 -54.5q75 0 141 76l6 -4q-90 -114 -192 -114z"/>
<glyph glyph-name="trademark" horiz-adv-x="404" unicode="™" d="M303 471h5q12 0 15.5 3t3.5 15l3 123q-5 7 -17 9l-7 1l-1 3h54l43 -116h1l44 116h56l-1 -3l-12 -1q-11 -2 -11 -4l3 -142q0 -1 2 -1q6 0 12 -2l7 -1l1 -3h-76v3l12 1q10 1 10 4l-2 137h-1l-56 -145h-3l-54 139v1h-1l-2 -121q0 -11 4 -13.5t19 -2.5h5l1 -3h-58zM174 471 l11 1q12 2 12 4v146h-12q-23 0 -46 -40l-2 -3h-2l8 46h140l5 -46h-1l-2 4q-19 39 -45 39h-12v-147q0 -1 2 -1q6 0 12 -2l8 -1v-3h-77z"/>
<glyph glyph-name="radical" horiz-adv-x="659" unicode="√" d="M704 663l-199 -631l49 -6l70 109l6 -3q-71 -144 -120 -144q-16 0 -42 13.5t-24 22.5q0 2 30 100.5t71 233.5t59 197q-27 8 -27 36q0 20 21 37q-4 8 -12 12q-15 12 -42 12q-50 0 -80 -48.5t-57 -178.5l104 -1l-12 -32h-98l-54 -228q-50 -213 -116 -279q-35 -35 -88 -35 q-34 0 -53.5 15t-19.5 39q0 18 12.5 31t30.5 13q15 0 26.5 -11.5t11.5 -28.5q0 -18 -16 -37q24 -9 27 -9q26 0 43.5 22t37 86.5t46.5 195.5l44 226h-145l-60 -258q-49 -210 -118 -279q-35 -35 -89 -35q-35 0 -55 15t-20 39q0 18 12.5 31t30.5 13q15 0 27.5 -12.5t12.5 -29.5 q0 -19 -15 -35q18 -10 30 -10q25 0 42.5 21.5t37.5 88t45 195.5l51 256l-78 2l12 30l76 2q27 107 88 167q49 49 114 49q33 0 56 -15t28 -39q9 12 18 21q52 53 124 53q52 0 78 -26zM383 536q-2 -1 -9 -1q-16 0 -27 10.5t-11 25.5q0 21 22 39q-4 6 -10 11q-14 10 -30 10 q-44 0 -73 -50.5t-51 -155.5l149 1q15 58 40 110z"/>
<glyph glyph-name="approxequal" horiz-adv-x="650" unicode="≈" d="M416 589q7 11 17 20q53 53 125 53q41 0 66.5 -21t25.5 -49q0 -18 -12 -30t-31 -12q-15 0 -25.5 10t-10.5 25q0 22 22 40q-5 8 -12 14q-15 13 -37 13q-50 0 -80 -48.5t-57 -178.5l131 -1q17 14 41 14q18 0 32 -21t14 -45q0 -11 -19 -62t-40.5 -104t-45 -109.5t-26.5 -63.5 l56 -7l71 109l5 -3q-36 -73 -68.5 -108.5t-54.5 -35.5q-16 0 -43 13t-27 22q0 7 32.5 89.5t68.5 172t41 105.5l-1 2h-173l-54 -228q-50 -213 -116 -279q-35 -35 -88 -35q-34 0 -53.5 15t-19.5 39q0 18 12.5 31t30.5 13q15 0 26.5 -11.5t11.5 -28.5q0 -18 -16 -37 q24 -9 27 -9q26 0 43.5 22t37 86.5t46.5 195.5l44 226h-145l-60 -258q-49 -210 -118 -279q-35 -35 -89 -35q-35 0 -55 15t-20 39q0 18 12.5 31t30.5 13q15 0 27.5 -12.5t12.5 -29.5q0 -19 -15 -35q21 -9 30 -9q25 0 42.5 21.5t37.5 87.5t45 195l51 256l-78 2l12 30l76 1 q27 107 88 168q49 49 114 49q33 0 56 -14.5t28 -38.5zM383 536q-2 -1 -9 -1q-16 0 -27 10.5t-11 25.5q0 21 22 39q-4 6 -10 11q-14 10 -30 10q-44 0 -73 -50.5t-51 -155.5h149q15 59 40 111z"/>
</font>
</defs>
</svg>
