<?xml version="1.0" encoding="utf-8"?>
<!-- Generator: Adobe Illustrator 18.1.1, SVG Export Plug-In . SVG Version: 6.00 Build 0)  -->
<svg version="1.1" id="Layer_1" xmlns="http://www.w3.org/2000/svg" xmlns:xlink="http://www.w3.org/1999/xlink" x="0px" y="0px"
	 width="394.2px" height="33.6px" viewBox="0 0 394.2 33.6" enable-background="new 0 0 394.2 33.6" xml:space="preserve">
<g>
	<path fill="#FFFFFF" d="M39.2,9.8c-5-2-9.8-3-14.7-3c-10.7,0-14.4,5.5-14.4,10.3c0,5.8,5.5,9.6,13.6,9.6c2.4,0,3.6-0.2,6.5-1.2
		v-3.8h-5.7v-6H40v13.4c-2.9,2.5-10.2,4.4-16.5,4.4C9.7,33.6,0,26.6,0,16.8C0,6.9,9.7,0,23.7,0c5.9,0,11.6,1.1,15.5,2.7V9.8z"/>
	<path fill="#FFFFFF" d="M84.5,33.2h-9.8V0.4h9.8V33.2z"/>
	<path fill="#FFFFFF" d="M145.8,8.9c-5.7-2.1-9.1-2.9-12.4-2.9c-3.5,0-5.8,1.1-5.8,2.7c0,4.9,20,3.6,20,15c0,6.3-6.3,9.9-15.1,9.9
		c-6.9,0-10.3-1.5-14.2-3.2v-7.1c5.6,3.1,9.1,4.2,13.4,4.2c3.7,0,5.8-1.1,5.8-3c0-5.4-20-3.4-20-15.2c0-5.7,5.9-9.4,15-9.4
		c4.4,0,8.4,0.8,13.3,2.5V8.9z"/>
	<path fill="#FFFFFF" d="M209.1,33.2h-29V0.4h28.6v6H190v6.9h17.9v6H190v7.9h19.2V33.2z"/>
	<path fill="#FFFFFF" d="M272.5,33.2h-30V0.4h9.8v26.7h20.2V33.2z"/>
	<path fill="#FFFFFF" d="M333.8,33.2h-30V0.4h9.8v26.7h20.2V33.2z"/>
	<path fill="#FFFFFF" d="M394.2,33.2h-29V0.4h28.6v6H375v6.9h17.9v6H375v7.9h19.2V33.2z"/>
</g>
</svg>
