<?xml version="1.0" encoding="utf-8"?>
<!-- Generator: Adobe Illustrator 18.1.1, SVG Export Plug-In . SVG Version: 6.00 Build 0)  -->
<svg version="1.1" id="Layer_1" xmlns="http://www.w3.org/2000/svg" xmlns:xlink="http://www.w3.org/1999/xlink" x="0px" y="0px"
	 width="512px" height="512px" viewBox="-703 705 512 512" enable-background="new -703 705 512 512" xml:space="preserve">
<g id="Layer_x0020_1">
	<path stroke="#FFFFFF" stroke-miterlimit="10" d="M-703,705h512v512h-512V705z M-278.9,857.3c-12.4,5.5-25.7,9.1-39.6,10.8
		c14.2-8.5,25.2-22,30.3-38c-13.3,7.9-28.1,13.6-43.8,16.7c-12.6-13.4-30.5-21.7-50.3-21.7c-38.1,0-68.9,30.7-68.9,68.6
		c0,5.4,0.6,10.6,1.8,15.6c-57.3-2.9-108.1-30.2-142.1-71.7c-5.9,10.1-9.3,21.9-9.3,34.5c0,23.8,12.2,44.8,30.7,57.1
		c-11.3-0.4-21.9-3.5-31.2-8.6c0,0.3,0,0.6,0,0.9c0,33.3,23.8,61,55.3,67.3c-5.8,1.6-11.9,2.4-18.2,2.4c-4.4,0-8.8-0.4-13-1.2
		c8.8,27.3,34.2,47.1,64.4,47.6c-23.6,18.4-53.3,29.4-85.6,29.4c-5.6,0-11-0.3-16.4-1c30.5,19.5,66.7,30.8,105.6,30.8
		c126.8,0,196.1-104.6,196.1-195.2c0-3-0.1-5.9-0.2-8.9C-299.8,883.1-288.1,871-278.9,857.3L-278.9,857.3z"/>
</g>
</svg>
